<?xml version="1.0" encoding="UTF-8" standalone="no"?>
<!-- Created with Inkscape (http://www.inkscape.org/) -->

<svg
   xmlns:dc="http://purl.org/dc/elements/1.1/"
   xmlns:cc="http://creativecommons.org/ns#"
   xmlns:rdf="http://www.w3.org/1999/02/22-rdf-syntax-ns#"
   xmlns:svg="http://www.w3.org/2000/svg"
   xmlns="http://www.w3.org/2000/svg"
   xmlns:sodipodi="http://sodipodi.sourceforge.net/DTD/sodipodi-0.dtd"
   xmlns:inkscape="http://www.inkscape.org/namespaces/inkscape"
   width="256"
   height="256"
   id="svg3332"
   version="1.1"
   inkscape:version="0.48.4 r9939"
   sodipodi:docname="foqus_icon.svg">
  <defs
     id="defs3334" />
  <sodipodi:namedview
     id="base"
     pagecolor="#ffffff"
     bordercolor="#666666"
     borderopacity="1.0"
     inkscape:pageopacity="0.0"
     inkscape:pageshadow="2"
     inkscape:zoom="3.5976562"
     inkscape:cx="125.74641"
     inkscape:cy="134.588"
     inkscape:document-units="px"
     inkscape:current-layer="layer1"
     showgrid="true"
     width="256px"
     inkscape:window-width="1600"
     inkscape:window-height="1178"
     inkscape:window-x="1592"
     inkscape:window-y="-8"
     inkscape:window-maximized="1">
    <inkscape:grid
       type="xygrid"
       id="grid3340"
       empspacing="5"
       visible="true"
       enabled="true"
       snapvisiblegridlinesonly="true"
       spacingx="1px"
       spacingy="1px"
       empcolor="#0000ff"
       empopacity="0.25098039"
       color="#006970"
       opacity="0.1254902" />
  </sodipodi:namedview>
  <metadata
     id="metadata3337">
    <rdf:RDF>
      <cc:Work
         rdf:about="">
        <dc:format>image/svg+xml</dc:format>
        <dc:type
           rdf:resource="http://purl.org/dc/dcmitype/StillImage" />
        <dc:title></dc:title>
      </cc:Work>
    </rdf:RDF>
  </metadata>
  <g
     inkscape:label="Layer 1"
     inkscape:groupmode="layer"
     id="layer1"
     transform="translate(0,-796.36218)">
    <rect
       style="fill:#d7e3f4;fill-opacity:1;stroke:#787878;stroke-width:1;stroke-linejoin:round;stroke-miterlimit:4;stroke-opacity:1;stroke-dasharray:none"
       id="rect3379"
       width="244.9727"
       height="244.71103"
       x="5.0136523"
       y="802.37585" />
    <path
       sodipodi:type="arc"
       style="fill:#3771c8;stroke:none"
       id="path3016"
       sodipodi:cx="62.5"
       sodipodi:cy="137.5"
       sodipodi:rx="12.5"
       sodipodi:ry="12.5"
       d="M 75,137.5 C 75,144.40356 69.403559,150 62.5,150 55.596441,150 50,144.40356 50,137.5 50,130.59644 55.596441,125 62.5,125 c 6.903559,0 12.5,5.59644 12.5,12.5 z"
       transform="matrix(1.034501,-0.58510098,0.59726938,1.0134246,-40.903644,769.0374)" />
    <path
       sodipodi:type="arc"
       style="fill:#3771c8;fill-opacity:1;stroke:none"
       id="path3012"
       sodipodi:cx="62.5"
       sodipodi:cy="67.5"
       sodipodi:rx="12.5"
       sodipodi:ry="12.5"
       d="M 75,67.5 C 75,74.403559 69.403559,80 62.5,80 55.596441,80 50,74.403559 50,67.5 50,60.596441 55.596441,55 62.5,55 69.403559,55 75,60.596441 75,67.5 z"
       transform="matrix(1.034501,-0.58510098,0.59726938,1.0134246,-25.971902,794.37299)" />
    <path
       sodipodi:type="arc"
       style="fill:#000000;fill-opacity:0.62264153;stroke:none"
       id="path3014"
       sodipodi:cx="62.5"
       sodipodi:cy="102.5"
       sodipodi:rx="22.5"
       sodipodi:ry="22.5"
       d="M 85,102.5 C 85,114.92641 74.926407,125 62.5,125 50.073593,125 40,114.92641 40,102.5 40,90.073593 50.073593,80 62.5,80 74.926407,80 85,90.073593 85,102.5 z"
       transform="matrix(0.80461171,-0.45507848,0.46454289,0.78821922,-5.4652618,796.66238)" />
    <path
       sodipodi:type="arc"
       style="fill:#3771c8;stroke:none"
       id="path3016-9"
       sodipodi:cx="62.5"
       sodipodi:cy="137.5"
       sodipodi:rx="12.5"
       sodipodi:ry="12.5"
       d="M 75,137.5 C 75,144.40356 69.403559,150 62.5,150 55.596441,150 50,144.40356 50,137.5 50,130.59644 55.596441,125 62.5,125 c 6.903559,0 12.5,5.59644 12.5,12.5 z"
       transform="matrix(0.89289146,0.77734944,-0.79351605,0.87470023,219.24429,713.2316)" />
    <path
       sodipodi:type="arc"
       style="fill:#3771c8;fill-opacity:1;stroke:none"
       id="path3012-4"
       sodipodi:cx="62.5"
       sodipodi:cy="67.5"
       sodipodi:rx="12.5"
       sodipodi:ry="12.5"
       d="M 75,67.5 C 75,74.403559 69.403559,80 62.5,80 55.596441,80 50,74.403559 50,67.5 50,60.596441 55.596441,55 62.5,55 69.403559,55 75,60.596441 75,67.5 z"
       transform="matrix(0.89289146,0.77734944,-0.79351605,0.87470023,199.40642,735.09909)" />
    <path
       sodipodi:type="arc"
       style="fill:#000000;fill-opacity:0.62264153;stroke:none"
       id="path3014-8"
       sodipodi:cx="62.5"
       sodipodi:cy="102.5"
       sodipodi:rx="22.5"
       sodipodi:ry="22.5"
       d="M 85,102.5 C 85,114.92641 74.926407,125 62.5,125 50.073593,125 40,114.92641 40,102.5 40,90.073593 50.073593,80 62.5,80 74.926407,80 85,90.073593 85,102.5 z"
       transform="matrix(0.69447107,0.60460504,-0.61717921,0.68032245,203.6521,754.88561)" />
    <path
       sodipodi:type="arc"
       style="fill:#3771c8;stroke:none"
       id="path3016-8"
       sodipodi:cx="62.5"
       sodipodi:cy="137.5"
       sodipodi:rx="12.5"
       sodipodi:ry="12.5"
       d="M 75,137.5 C 75,144.40356 69.403559,150 62.5,150 55.596441,150 50,144.40356 50,137.5 50,130.59644 55.596441,125 62.5,125 c 6.903559,0 12.5,5.59644 12.5,12.5 z"
       transform="matrix(-0.25453349,-1.1433277,1.1671056,-0.24934779,-64.575305,1034.4906)" />
    <path
       sodipodi:type="arc"
       style="fill:#3771c8;fill-opacity:1;stroke:none"
       id="path3012-2"
       sodipodi:cx="62.5"
       sodipodi:cy="67.5"
       sodipodi:rx="12.5"
       sodipodi:ry="12.5"
       d="M 75,67.5 C 75,74.403559 69.403559,80 62.5,80 55.596441,80 50,74.403559 50,67.5 50,60.596441 55.596441,55 62.5,55 69.403559,55 75,60.596441 75,67.5 z"
       transform="matrix(-0.25453349,-1.1433277,1.1671056,-0.24934779,-35.397675,1028.2569)" />
    <path
       sodipodi:type="arc"
       style="fill:#000000;fill-opacity:0.62264153;stroke:none"
       id="path3014-4"
       sodipodi:cx="62.5"
       sodipodi:cy="102.5"
       sodipodi:rx="22.5"
       sodipodi:ry="22.5"
       d="M 85,102.5 C 85,114.92641 74.926407,125 62.5,125 50.073593,125 40,114.92641 40,102.5 40,90.073593 50.073593,80 62.5,80 74.926407,80 85,90.073593 85,102.5 z"
       transform="matrix(-0.19797048,-0.88925478,0.90774889,-0.1939372,-26.937626,1009.8147)" />
    <path
       sodipodi:type="arc"
       style="fill:#3771c8;stroke:none"
       id="path3016-5"
       sodipodi:cx="62.5"
       sodipodi:cy="137.5"
       sodipodi:rx="12.5"
       sodipodi:ry="12.5"
       d="M 75,137.5 C 75,144.40356 69.403559,150 62.5,150 55.596441,150 50,144.40356 50,137.5 50,130.59644 55.596441,125 62.5,125 c 6.903559,0 12.5,5.59644 12.5,12.5 z"
       transform="matrix(-0.4908313,1.0668522,-1.0890397,-0.48083141,358.04884,936.29138)" />
    <path
       sodipodi:type="arc"
       style="fill:#3771c8;fill-opacity:1;stroke:none"
       id="path3012-5"
       sodipodi:cx="62.5"
       sodipodi:cy="67.5"
       sodipodi:rx="12.5"
       sodipodi:ry="12.5"
       d="M 75,67.5 C 75,74.403559 69.403559,80 62.5,80 55.596441,80 50,74.403559 50,67.5 50,60.596441 55.596441,55 62.5,55 69.403559,55 75,60.596441 75,67.5 z"
       transform="matrix(-0.4908313,1.0668522,-1.0890397,-0.48083141,330.82287,924.27059)" />
    <path
       sodipodi:type="arc"
       style="fill:#000000;fill-opacity:0.62264153;stroke:none"
       id="path3014-1"
       sodipodi:cx="62.5"
       sodipodi:cy="102.5"
       sodipodi:rx="22.5"
       sodipodi:ry="22.5"
       d="M 85,102.5 C 85,114.92641 74.926407,125 62.5,125 50.073593,125 40,114.92641 40,102.5 40,90.073593 50.073593,80 62.5,80 74.926407,80 85,90.073593 85,102.5 z"
       transform="matrix(-0.38175765,0.82977387,-0.84703095,-0.37397999,312.81285,934.14615)" />
    <path
       sodipodi:type="arc"
       style="fill:#3771c8;stroke:none"
       id="path3016-7"
       sodipodi:cx="62.5"
       sodipodi:cy="137.5"
       sodipodi:rx="12.5"
       sodipodi:ry="12.5"
       d="M 75,137.5 C 75,144.40356 69.403559,150 62.5,150 55.596441,150 50,144.40356 50,137.5 50,130.59644 55.596441,125 62.5,125 c 6.903559,0 12.5,5.59644 12.5,12.5 z"
       transform="matrix(-1.1889529,-0.11303493,0.11538573,-1.1647299,184.80343,1138.6907)" />
    <path
       sodipodi:type="arc"
       style="fill:#3771c8;fill-opacity:1;stroke:none"
       id="path3012-1"
       sodipodi:cx="62.5"
       sodipodi:cy="67.5"
       sodipodi:rx="12.5"
       sodipodi:ry="12.5"
       d="M 75,67.5 C 75,74.403559 69.403559,80 62.5,80 55.596441,80 50,74.403559 50,67.5 50,60.596441 55.596441,55 62.5,55 69.403559,55 75,60.596441 75,67.5 z"
       transform="matrix(-1.1889529,-0.11303493,0.11538573,-1.1647299,187.68807,1109.5725)" />
    <path
       sodipodi:type="arc"
       style="fill:#000000;fill-opacity:0.62264153;stroke:none"
       id="path3014-15"
       sodipodi:cx="62.5"
       sodipodi:cy="102.5"
       sodipodi:rx="22.5"
       sodipodi:ry="22.5"
       d="M 85,102.5 C 85,114.92641 74.926407,125 62.5,125 50.073593,125 40,114.92641 40,102.5 40,90.073593 50.073593,80 62.5,80 74.926407,80 85,90.073593 85,102.5 z"
       transform="matrix(-0.92474101,-0.08791604,0.08974444,-0.9059011,172.36072,1096.0317)" />
    <flowRoot
       xml:space="preserve"
       id="flowRoot3021"
       style="font-size:144px;font-style:normal;font-variant:normal;font-weight:normal;font-stretch:normal;line-height:125%;letter-spacing:0px;word-spacing:0px;fill:#000000;fill-opacity:1;stroke:none;font-family:Sin City;-inkscape-font-specification:Sin City"
       transform="translate(29.4375,841.81371)"><flowRegion
         id="flowRegion3023"><rect
           id="rect3025"
           width="244.6037"
           height="244.04778"
           x="5.559175"
           y="6.6710062"
           style="font-size:144px;font-style:normal;font-variant:normal;font-weight:normal;font-stretch:normal;font-family:Sin City;-inkscape-font-specification:Sin City" /></flowRegion><flowPara
         id="flowPara3027"
         style="fill:#ff0000">S</flowPara></flowRoot>  </g>
</svg>
