<?xml version="1.0" encoding="UTF-8" standalone="no"?>
<!-- Created with Inkscape (http://www.inkscape.org/) -->

<svg
   xmlns:dc="http://purl.org/dc/elements/1.1/"
   xmlns:cc="http://creativecommons.org/ns#"
   xmlns:rdf="http://www.w3.org/1999/02/22-rdf-syntax-ns#"
   xmlns:svg="http://www.w3.org/2000/svg"
   xmlns="http://www.w3.org/2000/svg"
   xmlns:xlink="http://www.w3.org/1999/xlink"
   xmlns:sodipodi="http://sodipodi.sourceforge.net/DTD/sodipodi-0.dtd"
   xmlns:inkscape="http://www.inkscape.org/namespaces/inkscape"
   width="719.8678"
   height="135.85767"
   id="svg2994"
   version="1.1"
   inkscape:version="0.48.4 r9939"
   sodipodi:docname="SimSinterHeader1.png"
   inkscape:export-filename="C:\aspenfiles\pt6_optimize\sim-based_optimize\trunk\foqus\foqus_gui\icons\SimSinterHeader1.png"
   inkscape:export-xdpi="331.229"
   inkscape:export-ydpi="331.229">
  <defs
     id="defs2996">
    <linearGradient
       id="linearGradient4012">
      <stop
         style="stop-color:#ffffff;stop-opacity:0;"
         offset="0"
         id="stop4014" />
      <stop
         id="stop4030"
         offset="0.5"
         style="stop-color:#90ccff;stop-opacity:1;" />
      <stop
         id="stop4026"
         offset="1"
         style="stop-color:#ffffff;stop-opacity:0;" />
    </linearGradient>
    <linearGradient
       inkscape:collect="always"
       xlink:href="#linearGradient4012"
       id="linearGradient3632"
       gradientUnits="userSpaceOnUse"
       gradientTransform="matrix(1.1997794,0,0,0.45285883,44.428432,-196.05623)"
       spreadMethod="pad"
       x1="13.21875"
       y1="174.15625"
       x2="13.21875"
       y2="424.15625" />
  </defs>
  <sodipodi:namedview
     id="base"
     pagecolor="#ffffff"
     bordercolor="#666666"
     borderopacity="1.0"
     inkscape:pageopacity="0.0"
     inkscape:pageshadow="2"
     inkscape:zoom="1.979899"
     inkscape:cx="261.74623"
     inkscape:cy="-92.85213"
     inkscape:document-units="px"
     inkscape:current-layer="g3503"
     showgrid="true"
     fit-margin-top="0"
     fit-margin-left="0"
     fit-margin-right="0"
     fit-margin-bottom="0"
     inkscape:window-width="1600"
     inkscape:window-height="1178"
     inkscape:window-x="1592"
     inkscape:window-y="-8"
     inkscape:window-maximized="1"
     showguides="true"
     inkscape:guide-bbox="true">
    <inkscape:grid
       type="xygrid"
       id="grid3004"
       empspacing="5"
       visible="true"
       enabled="true"
       snapvisiblegridlinesonly="true"
       spacingx="5px"
       spacingy="5px"
       originx="-0.32287598px"
       originy="-449.13657px" />
  </sodipodi:namedview>
  <metadata
     id="metadata2999">
    <rdf:RDF>
      <cc:Work
         rdf:about="">
        <dc:format>image/svg+xml</dc:format>
        <dc:type
           rdf:resource="http://purl.org/dc/dcmitype/StillImage" />
        <dc:title></dc:title>
      </cc:Work>
    </rdf:RDF>
  </metadata>
  <g
     inkscape:label="Layer 1"
     inkscape:groupmode="layer"
     id="layer1"
     transform="translate(342.14587,130.15048)">
    <text
       xml:space="preserve"
       style="font-size:56px;font-style:normal;font-weight:normal;line-height:125%;letter-spacing:0px;word-spacing:0px;fill:#000000;fill-opacity:1;stroke:none;font-family:Sans;-inkscape-font-specification:Sans"
       x="535.88593"
       y="167.61925"
       id="text3872"
       sodipodi:linespacing="125%"
       transform="translate(-336.78125,144.15625)"><tspan
         sodipodi:role="line"
         id="tspan3876"
         x="535.88593"
         y="167.61925" /></text>
    <text
       xml:space="preserve"
       style="font-size:12px;font-style:normal;font-weight:normal;line-height:125%;letter-spacing:0px;word-spacing:0px;fill:#000000;fill-opacity:1;stroke:none;font-family:Sans;-inkscape-font-specification:Sans"
       x="-309.46875"
       y="171.84375"
       id="text3765"
       sodipodi:linespacing="125%"><tspan
         sodipodi:role="line"
         id="tspan3767"
         x="-309.46875"
         y="171.84375"
         style="font-size:18px" /><tspan
         sodipodi:role="line"
         x="-309.46875"
         y="194.34375"
         id="tspan3769" /></text>
    <text
       xml:space="preserve"
       style="font-size:24px;font-style:normal;font-weight:normal;line-height:125%;letter-spacing:0px;word-spacing:0px;fill:#000000;fill-opacity:1;stroke:none;font-family:Sans"
       x="-292.46875"
       y="264.84375"
       id="text3901"
       sodipodi:linespacing="125%"><tspan
         sodipodi:role="line"
         id="tspan3903"
         x="-292.46875"
         y="264.84375"
         style="font-size:18px" /><tspan
         sodipodi:role="line"
         x="-292.46875"
         y="287.34375"
         id="tspan3905" /></text>
    <text
       xml:space="preserve"
       style="font-size:24px;font-style:normal;font-weight:normal;line-height:125%;letter-spacing:0px;word-spacing:0px;fill:#000000;fill-opacity:1;stroke:none;font-family:Sans"
       x="49.497475"
       y="174.99236"
       id="text3065"
       sodipodi:linespacing="125%"
       transform="translate(-342.46875,129.84375)"><tspan
         sodipodi:role="line"
         x="49.497475"
         y="174.99236"
         id="tspan4185" /></text>
    <text
       xml:space="preserve"
       style="font-size:40px;font-style:normal;font-weight:normal;line-height:125%;letter-spacing:0px;word-spacing:0px;fill:#000000;fill-opacity:1;stroke:none;font-family:Sans"
       x="42.426407"
       y="127.24861"
       id="text3238"
       sodipodi:linespacing="125%"
       transform="translate(-342.46875,-145.15625)"><tspan
         sodipodi:role="line"
         id="tspan3240"
         x="42.426407"
         y="127.24861" /></text>
    <g
       id="g3429"
       transform="translate(15,0)">
      <g
         id="g3503">
        <rect
           style="fill:url(#linearGradient3632);fill-opacity:1;stroke:none"
           id="rect3002"
           width="719.8678"
           height="135.85767"
           x="-356.64078"
           y="-129.6454" />
        <path
           inkscape:connector-curvature="0"
           id="path5499"
           style="font-size:128px;font-style:normal;font-variant:normal;font-weight:normal;font-stretch:normal;line-height:0%;letter-spacing:15px;word-spacing:0px;fill:#000000;fill-opacity:1;stroke:none;font-family:Corbel;-inkscape-font-specification:Corbel"
           d="m 171.20224,-84.080322 c -2.38937,4e-5 -4.62267,0.38212 -6.69989,1.14625 -2.07725,0.76421 -3.88003,1.90506 -5.40834,3.42259 -1.52835,1.51759 -2.73379,3.4011 -3.61634,5.65051 -0.88255,2.24947 -1.32384,4.87023 -1.32382,7.86228 -2e-5,2.97059 0.40898,5.54829 1.22697,7.73314 0.81797,2.18487 1.98035,3.99304 3.48717,5.42449 1.50679,1.43146 3.32033,2.49161 5.44063,3.18043 2.12027,0.68881 4.48272,1.03323 7.08735,1.03323 0.71033,0 1.46373,-0.0377 2.26022,-0.11301 0.79642,-0.0754 1.59825,-0.18297 2.40549,-0.32289 0.80719,-0.13991 1.59288,-0.30134 2.35707,-0.48433 0.76412,-0.18296 1.44758,-0.38208 2.05033,-0.59735 l 0,4.64957 c -1.27005,0.49511 -2.74456,0.87719 -4.42354,1.14625 -1.67904,0.26908 -3.4011,0.40361 -5.16618,0.40361 -3.59483,0 -6.78063,-0.50047 -9.55743,-1.50142 -2.77684,-1.00095 -5.107,-2.43778 -6.99049,-4.31053 -1.88351,-1.87274 -3.30959,-4.15984 -4.27826,-6.86134 -0.96865,-2.70147 -1.45298,-5.7635 -1.45298,-9.18611 0,-3.35799 0.51124,-6.44694 1.53371,-9.26684 1.02246,-2.81984 2.49698,-5.24149 4.42354,-7.26495 1.92655,-2.02338 4.26208,-3.60013 7.00665,-4.73027 2.74451,-1.13008 5.82806,-1.69512 9.25068,-1.69516 0.90407,4e-5 1.79737,0.0377 2.67995,0.11301 0.88254,0.0754 1.72742,0.183 2.53466,0.32289 0.80719,0.13996 1.55521,0.30678 2.24405,0.50046 0.6888,0.19379 1.28076,0.39828 1.77589,0.61349 l 0,4.64957 c -1.29158,-0.43048 -2.70151,-0.79104 -4.2298,-1.08167 -1.52837,-0.29057 -3.06747,-0.43586 -4.61729,-0.4359 z" />
        <path
           inkscape:connector-curvature="0"
           id="path5501"
           style="font-size:128px;font-style:normal;font-variant:normal;font-weight:normal;font-stretch:normal;line-height:0%;letter-spacing:15px;word-spacing:0px;fill:#000000;fill-opacity:1;stroke:none;font-family:Corbel;-inkscape-font-specification:Corbel"
           d="m 217.95619,-84.080322 c -2.38939,4e-5 -4.62268,0.38212 -6.6999,1.14625 -2.07725,0.76421 -3.88003,1.90506 -5.40833,3.42259 -1.52836,1.51759 -2.73379,3.4011 -3.61634,5.65051 -0.88256,2.24947 -1.32384,4.87023 -1.32383,7.86228 -1e-5,2.97059 0.40898,5.54829 1.22697,7.73314 0.81796,2.18487 1.98035,3.99304 3.48717,5.42449 1.50679,1.43146 3.32033,2.49161 5.44063,3.18043 2.12026,0.68881 4.48271,1.03323 7.08736,1.03323 0.71032,0 1.46372,-0.0377 2.2602,-0.11301 0.79643,-0.0754 1.59825,-0.18297 2.4055,-0.32289 0.80719,-0.13991 1.59288,-0.30134 2.35708,-0.48433 0.76413,-0.18296 1.44757,-0.38208 2.05033,-0.59735 l 0,4.64957 c -1.27006,0.49511 -2.74457,0.87719 -4.42355,1.14625 -1.67905,0.26908 -3.40111,0.40361 -5.16619,0.40361 -3.59482,0 -6.78062,-0.50047 -9.55742,-1.50142 -2.77685,-1.00095 -5.10699,-2.43778 -6.9905,-4.31053 -1.88351,-1.87274 -3.30958,-4.15984 -4.27823,-6.86134 -0.96867,-2.70147 -1.453,-5.7635 -1.453,-9.18611 0,-3.35799 0.51124,-6.44694 1.53371,-9.26684 1.02247,-2.81984 2.49699,-5.24149 4.42354,-7.26495 1.92655,-2.02338 4.2621,-3.60013 7.00664,-4.73027 2.74451,-1.13008 5.82808,-1.69512 9.25068,-1.69516 0.90407,4e-5 1.79738,0.0377 2.67998,0.11301 0.88252,0.0754 1.72741,0.183 2.53465,0.32289 0.80718,0.13996 1.5552,0.30678 2.24406,0.50046 0.6888,0.19379 1.28075,0.39828 1.77587,0.61349 l 0,4.64957 c -1.29158,-0.43048 -2.70151,-0.79104 -4.2298,-1.08167 -1.52837,-0.29057 -3.06746,-0.43586 -4.61728,-0.4359 z" />
        <path
           inkscape:connector-curvature="0"
           id="path5503"
           style="font-size:128px;font-style:normal;font-variant:normal;font-weight:normal;font-stretch:normal;line-height:0%;letter-spacing:15px;word-spacing:0px;fill:#000000;fill-opacity:1;stroke:none;font-family:Corbel;-inkscape-font-specification:Corbel"
           d="m 247.72631,-76.524782 c -1e-5,1.27005 0.25829,2.31943 0.77493,3.14814 0.51661,0.82877 1.2108,1.51221 2.08261,2.05033 0.87178,0.53818 1.88349,0.97946 3.03513,1.32383 1.15161,0.34445 2.35167,0.66732 3.60018,0.96866 1.67899,0.40902 3.33109,0.86105 4.95631,1.35614 1.62517,0.49511 3.07277,1.17854 4.34282,2.05031 1.26999,0.87182 2.29785,2.0073 3.08357,3.40646 0.78565,1.39917 1.1785,3.19658 1.17853,5.39219 -3e-5,2.23869 -0.41441,4.17063 -1.24311,5.79582 -0.82878,1.62518 -1.9804,2.9598 -3.45488,4.00379 -1.47455,1.04399 -3.23427,1.81892 -5.2792,2.32478 -2.04497,0.50584 -4.28364,0.75878 -6.71604,0.75878 -1.11934,0 -2.26559,-0.07 -3.43873,-0.20987 -1.17317,-0.13992 -2.2925,-0.32827 -3.35801,-0.56506 -1.06555,-0.23677 -2.02883,-0.50586 -2.88984,-0.80722 -0.86105,-0.30134 -1.5391,-0.60271 -2.0342,-0.90408 l 0,-4.81101 c 0.77493,0.38749 1.64673,0.74266 2.6154,1.06554 0.96864,0.32288 1.96959,0.59734 3.00283,0.82335 1.03324,0.22603 2.07723,0.40362 3.13201,0.53276 1.05474,0.12916 2.04493,0.19374 2.97054,0.19374 1.50679,0 2.94363,-0.12915 4.31054,-0.38747 1.36686,-0.2583 2.56692,-0.68881 3.60019,-1.29153 1.0332,-0.60271 1.85117,-1.42608 2.45393,-2.47009 0.60269,-1.044 0.90406,-2.35167 0.90408,-3.92307 -2e-5,-1.29153 -0.26372,-2.35705 -0.79107,-3.19657 -0.52741,-0.83949 -1.23238,-1.5337 -2.11491,-2.08261 -0.88257,-0.5489 -1.89967,-0.99556 -3.05127,-1.34 -1.15166,-0.34438 -2.36248,-0.66727 -3.63247,-0.96864 -1.67903,-0.38746 -3.32036,-0.82336 -4.92402,-1.3077 -1.60368,-0.48431 -3.03514,-1.15698 -4.29439,-2.01804 -1.25926,-0.861 -2.27098,-1.96957 -3.03513,-3.32573 -0.76417,-1.35609 -1.14626,-3.08892 -1.14626,-5.19846 0,-2.1956 0.38747,-4.08448 1.16241,-5.66666 0.77491,-1.58212 1.82968,-2.88979 3.16428,-3.92307 1.33459,-1.0332 2.8952,-1.79735 4.68185,-2.2925 1.78663,-0.49505 3.69165,-0.74259 5.71509,-0.74263 2.30323,4e-5 4.45043,0.22068 6.44158,0.66192 1.99111,0.44132 3.81542,1.01713 5.47293,1.72744 l 0,4.87558 c -1.78667,-0.75338 -3.6325,-1.36685 -5.5375,-1.84045 -1.90506,-0.47353 -3.94463,-0.72107 -6.1187,-0.74264 -1.63597,4e-5 -3.05668,0.17762 -4.2621,0.53277 -1.20546,0.35521 -2.2064,0.86105 -3.00284,1.51755 -0.79647,0.65657 -1.38842,1.45304 -1.77588,2.38937 -0.38747,0.9364 -0.5812,1.97501 -0.58119,3.11585 z" />
        <path
           inkscape:connector-curvature="0"
           id="path5505"
           style="font-size:56px;font-style:normal;font-variant:normal;font-weight:normal;font-stretch:normal;line-height:0%;letter-spacing:0px;word-spacing:0px;fill:#000000;fill-opacity:1;stroke:none;font-family:Corbel;-inkscape-font-specification:Corbel"
           d="m 288.02252,-44.752772 0,-43.20218 5.26305,0 0,43.20218 z" />
        <path
           inkscape:connector-curvature="0"
           id="path5507"
           style="font-size:24px;font-style:normal;font-variant:normal;font-weight:normal;font-stretch:normal;line-height:0%;letter-spacing:0px;word-spacing:0px;fill:#000000;fill-opacity:1;stroke:none;font-family:Corbel;-inkscape-font-specification:Corbel"
           d="m 302.74211,-79.882792 -0.98683,0 0,-7.21046 -2.7062,0 0,-0.88997 6.39921,0 0,0.88997 -2.70618,0 z" />
        <path
           inkscape:connector-curvature="0"
           id="path5509"
           style="font-size:24px;font-style:normal;font-variant:normal;font-weight:normal;font-stretch:normal;line-height:0%;letter-spacing:0px;word-spacing:0px;fill:#000000;fill-opacity:1;stroke:none;font-family:Corbel;-inkscape-font-specification:Corbel"
           d="m 311.00598,-79.882792 -0.45407,0 -2.04023,-4.83725 c -0.28253,-0.66595 -0.56505,-1.39043 -0.84758,-2.17342 l -0.0484,0 c 0.0565,1.12607 0.0847,2.15729 0.0847,3.09365 l 0,3.91702 -0.98681,0 0,-8.10043 1.42271,0 1.90704,4.58298 c 0.21795,0.52469 0.45809,1.15633 0.72044,1.89494 l 0.0302,0 c 0.29059,-0.81932 0.53075,-1.45096 0.72044,-1.89494 l 1.90705,-4.58298 1.42272,0 0,8.10043 -0.98683,0 0,-3.91702 c 0,-0.91618 0.0283,-1.9474 0.0847,-3.09365 l -0.0484,0 c -0.29868,0.82739 -0.5812,1.55187 -0.84758,2.17342 z" />
        <path
           inkscape:connector-curvature="0"
           id="path5511"
           style="font-size:24px;font-style:normal;font-variant:normal;font-weight:normal;font-stretch:normal;line-height:0%;letter-spacing:0px;word-spacing:0px;fill:#000000;fill-opacity:1;stroke:none;font-family:Corbel;-inkscape-font-specification:Corbel"
           d="m 152.18424,-36.133532 c -0.44802,1e-5 -0.86675,0.0717 -1.25623,0.21491 -0.38947,0.14329 -0.72751,0.3572 -1.01407,0.64174 -0.28657,0.28455 -0.51257,0.6377 -0.67806,1.05947 -0.16547,0.42178 -0.24823,0.91316 -0.24823,1.47418 0,0.55698 0.0767,1.0403 0.23008,1.44996 0.15335,0.40966 0.37131,0.7487 0.65383,1.01709 0.28252,0.2684 0.62258,0.46718 1.02012,0.59633 0.39755,0.12915 0.84052,0.19374 1.32889,0.19374 0.13318,0 0.27444,-0.008 0.42377,-0.0212 0.14934,-0.0141 0.29968,-0.0343 0.45105,-0.0606 0.15134,-0.0264 0.29866,-0.0565 0.44195,-0.0908 0.14328,-0.0343 0.27141,-0.0716 0.38443,-0.11201 l 0,0.8718 c -0.23814,0.0929 -0.51461,0.16447 -0.82942,0.2149 -0.31482,0.0504 -0.63769,0.0757 -0.96865,0.0757 -0.67403,0 -1.27136,-0.0939 -1.79202,-0.28151 -0.52066,-0.18768 -0.95755,-0.45709 -1.31073,-0.80822 -0.35314,-0.35114 -0.62054,-0.77998 -0.80215,-1.28651 -0.18163,-0.50652 -0.27245,-1.08065 -0.27244,-1.72239 -1e-5,-0.62964 0.0958,-1.2088 0.28756,-1.73753 0.19172,-0.52873 0.46819,-0.98278 0.82942,-1.36218 0.36123,-0.37939 0.79914,-0.67503 1.31374,-0.88692 0.51459,-0.2119 1.09278,-0.31783 1.7345,-0.31784 0.16952,1e-5 0.33702,0.008 0.50251,0.0212 0.16546,0.0142 0.32388,0.0343 0.47525,0.0605 0.15135,0.0264 0.2916,0.0576 0.42076,0.0939 0.12914,0.0364 0.24013,0.0746 0.33297,0.11504 l 0,0.87179 c -0.24217,-0.0808 -0.50653,-0.14832 -0.79309,-0.20282 -0.28657,-0.0544 -0.57515,-0.0818 -0.86574,-0.0818 z" />
        <path
           inkscape:connector-curvature="0"
           id="path5513"
           style="font-size:24px;font-style:normal;font-variant:normal;font-weight:normal;font-stretch:normal;line-height:0%;letter-spacing:0px;word-spacing:0px;fill:#000000;fill-opacity:1;stroke:none;font-family:Corbel;-inkscape-font-specification:Corbel"
           d="m 158.80744,-29.395302 -0.0243,0 c -0.0767,0.0969 -0.17355,0.19272 -0.29059,0.28757 -0.11704,0.0948 -0.25225,0.17961 -0.40563,0.25427 -0.15337,0.0746 -0.32087,0.13419 -0.50249,0.17859 -0.18162,0.0444 -0.37535,0.0665 -0.5812,0.0665 -0.27849,0 -0.53376,-0.0414 -0.76584,-0.12411 -0.23208,-0.0828 -0.43187,-0.20382 -0.59936,-0.36324 -0.16749,-0.15942 -0.29766,-0.35417 -0.39049,-0.58422 -0.0929,-0.23007 -0.13924,-0.49039 -0.13924,-0.78099 0,-0.28656 0.0514,-0.54284 0.15437,-0.76888 0.10295,-0.22602 0.24721,-0.41773 0.43288,-0.57514 0.18565,-0.15739 0.40865,-0.27848 0.66898,-0.36324 0.26032,-0.0847 0.5479,-0.12713 0.86271,-0.12714 0.29867,0.003 0.57514,0.0303 0.82942,0.0787 0.25426,0.0484 0.48028,0.10901 0.67806,0.18164 l 0.0243,0 0,-0.39957 c 0,-0.15741 -0.01,-0.29665 -0.0302,-0.41774 -0.0202,-0.12108 -0.0544,-0.22804 -0.10295,-0.32088 -0.10493,-0.19372 -0.27243,-0.35415 -0.5025,-0.4813 -0.23004,-0.12711 -0.54083,-0.1907 -0.93234,-0.1907 -0.29059,0 -0.56403,0.0273 -0.82032,0.0819 -0.25629,0.0544 -0.51157,0.13018 -0.76585,0.22704 l 0,-0.78704 c 0.0969,-0.0484 0.21089,-0.0937 0.34206,-0.13621 0.13117,-0.0424 0.26941,-0.0787 0.4147,-0.10902 0.14531,-0.0302 0.29868,-0.0535 0.46012,-0.0697 0.16143,-0.0162 0.32289,-0.0243 0.48433,-0.0243 0.5812,2e-5 1.05643,0.10295 1.42574,0.30876 0.3693,0.20585 0.63468,0.4783 0.79612,0.81731 0.0606,0.12915 0.10394,0.27142 0.13016,0.42682 0.0263,0.15539 0.0394,0.32591 0.0394,0.51157 l 0,3.83831 -0.78704,0 z m -0.0484,-1.88889 c -0.17356,-0.0484 -0.3794,-0.0948 -0.61751,-0.13925 -0.23815,-0.0444 -0.50048,-0.0686 -0.78704,-0.0726 -0.39957,10e-6 -0.71238,0.0847 -0.93839,0.25427 -0.22601,0.16952 -0.33903,0.42985 -0.33903,0.78098 0,0.1776 0.0282,0.33299 0.0847,0.46618 0.0565,0.13318 0.1342,0.24317 0.23309,0.32994 0.0989,0.0867 0.21592,0.15136 0.35113,0.19374 0.13521,0.0424 0.2795,0.0636 0.43287,0.0636 0.20181,0 0.38948,-0.0291 0.56304,-0.0877 0.17355,-0.0585 0.32792,-0.12813 0.46314,-0.20887 0.1352,-0.0808 0.25023,-0.16143 0.34508,-0.24216 0.0948,-0.0808 0.16447,-0.14328 0.20887,-0.18767 z" />
        <path
           inkscape:connector-curvature="0"
           id="path5515"
           style="font-size:24px;font-style:normal;font-variant:normal;font-weight:normal;font-stretch:normal;line-height:0%;letter-spacing:0px;word-spacing:0px;fill:#000000;fill-opacity:1;stroke:none;font-family:Corbel;-inkscape-font-specification:Corbel"
           d="m 164.67388,-33.748212 -0.0726,0 c -0.22198,0 -0.43993,0.0202 -0.65383,0.0605 -0.21392,0.0403 -0.41472,0.10195 -0.60239,0.18465 -0.18769,0.0827 -0.3572,0.18466 -0.50854,0.30574 -0.15136,0.12109 -0.27749,0.26434 -0.3784,0.42983 l 0,4.00784 -0.93838,0 0,-5.75142 0.7265,0 0.18162,0.91417 0.0182,0 c 0.0929,-0.14932 0.20684,-0.28857 0.34205,-0.41773 0.1352,-0.12916 0.28757,-0.24216 0.45709,-0.33904 0.1695,-0.0969 0.35518,-0.17253 0.55699,-0.22702 0.20178,-0.0544 0.41368,-0.0818 0.63567,-0.0818 0.0404,0 0.0818,9.4e-4 0.1241,0.003 0.0424,0.002 0.0798,0.004 0.11201,0.01 z" />
        <path
           inkscape:connector-curvature="0"
           id="path5517"
           style="font-size:24px;font-style:normal;font-variant:normal;font-weight:normal;font-stretch:normal;line-height:0%;letter-spacing:0px;word-spacing:0px;fill:#000000;fill-opacity:1;stroke:none;font-family:Corbel;-inkscape-font-specification:Corbel"
           d="m 169.86227,-31.659552 c -1e-5,-0.45607 -0.0535,-0.82638 -0.16044,-1.11093 -0.10692,-0.28454 -0.24419,-0.50652 -0.41167,-0.66594 -0.16751,-0.15943 -0.34611,-0.26941 -0.53581,-0.32996 -0.18969,-0.0606 -0.37937,-0.0908 -0.56906,-0.0908 -0.2906,0 -0.56407,0.0606 -0.82036,0.18163 -0.25628,0.12109 -0.48331,0.27849 -0.68107,0.47223 l 0,3.0089 c 0.0565,0.0767 0.13015,0.16043 0.22097,0.25123 0.0908,0.0908 0.19878,0.17558 0.3239,0.25428 0.12511,0.0787 0.26536,0.1453 0.42075,0.19979 0.15539,0.0544 0.32592,0.0818 0.51157,0.0818 0.27849,0 0.52368,-0.0544 0.73559,-0.16346 0.21188,-0.10902 0.38947,-0.26335 0.53276,-0.46314 0.14328,-0.19978 0.25124,-0.43792 0.32389,-0.71438 0.0727,-0.27647 0.1089,-0.58018 0.10902,-0.91115 z m 0.98078,-0.0726 c -1e-5,0.5368 -0.0726,1.00096 -0.21797,1.39246 -0.14531,0.39149 -0.33701,0.71539 -0.57513,0.97168 -0.23814,0.25628 -0.51057,0.44699 -0.81731,0.57211 -0.30675,0.12513 -0.62358,0.18768 -0.9505,0.18768 -0.2462,0 -0.46313,-0.0313 -0.65082,-0.0938 -0.18768,-0.0625 -0.3471,-0.13723 -0.47826,-0.22401 -0.13118,-0.0867 -0.23612,-0.17456 -0.31483,-0.26334 -0.0787,-0.0888 -0.13419,-0.15943 -0.16648,-0.21191 l -0.0182,0 -0.19979,0.64175 -0.70833,0 0,-8.76637 0.93839,0 0,3.55377 0.0181,0 c 0.20586,-0.21795 0.446,-0.38746 0.72046,-0.50855 0.27445,-0.12107 0.58724,-0.18162 0.93838,-0.18162 0.16144,0 0.336,0.0182 0.52368,0.0544 0.18768,0.0364 0.37333,0.0989 0.55699,0.18769 0.18363,0.0888 0.3602,0.20584 0.52972,0.35114 0.16952,0.14529 0.31885,0.32589 0.44801,0.54184 0.12915,0.21593 0.23207,0.47222 0.30877,0.76887 0.0767,0.29665 0.11502,0.63871 0.11503,1.02617 z" />
        <path
           inkscape:connector-curvature="0"
           id="path5519"
           style="font-size:24px;font-style:normal;font-variant:normal;font-weight:normal;font-stretch:normal;line-height:0%;letter-spacing:0px;word-spacing:0px;fill:#000000;fill-opacity:1;stroke:none;font-family:Corbel;-inkscape-font-specification:Corbel"
           d="m 176.46731,-31.629272 c 0,-0.35518 -0.0434,-0.671 -0.13016,-0.94748 -0.0867,-0.27646 -0.20788,-0.51055 -0.36325,-0.70227 -0.15539,-0.19171 -0.34004,-0.337 -0.55395,-0.4359 -0.21392,-0.0989 -0.448,-0.14833 -0.70229,-0.14833 -0.25426,0 -0.48835,0.0495 -0.70226,0.14833 -0.21392,0.0989 -0.39857,0.24419 -0.55397,0.4359 -0.15539,0.19172 -0.27645,0.42581 -0.36324,0.70227 -0.0867,0.27648 -0.13016,0.5923 -0.13016,0.94748 0,0.35113 0.0434,0.66495 0.13016,0.94142 0.0867,0.27646 0.20886,0.50955 0.36628,0.69924 0.1574,0.1897 0.34307,0.334 0.55697,0.43287 0.21391,0.0989 0.44801,0.14833 0.70228,0.14833 0.25427,0 0.48735,-0.0494 0.69925,-0.14833 0.21189,-0.0989 0.39554,-0.24317 0.55093,-0.43287 0.15537,-0.18969 0.27647,-0.42278 0.36325,-0.69924 0.0867,-0.27647 0.13016,-0.59029 0.13016,-0.94142 z m 0.98077,0 c 0,0.45204 -0.0645,0.86373 -0.19373,1.23504 -0.12916,0.37132 -0.31179,0.68915 -0.5479,0.95352 -0.23612,0.26437 -0.52166,0.4692 -0.85666,0.61449 -0.33501,0.14531 -0.71035,0.21796 -1.12607,0.21796 -0.42781,0 -0.81024,-0.0726 -1.14724,-0.21796 -0.33703,-0.14529 -0.62358,-0.35012 -0.85969,-0.61449 -0.23611,-0.26437 -0.41673,-0.5822 -0.54186,-0.95352 -0.12511,-0.37131 -0.18766,-0.783 -0.18766,-1.23504 0,-0.45607 0.0645,-0.86978 0.19373,-1.2411 0.12915,-0.37131 0.31178,-0.69017 0.54789,-0.95654 0.2361,-0.26639 0.52269,-0.47223 0.85969,-0.61752 0.33702,-0.1453 0.71336,-0.21795 1.12908,-0.21795 0.42379,0 0.8052,0.0726 1.14423,0.21795 0.33904,0.14529 0.62559,0.35113 0.85969,0.61752 0.2341,0.26637 0.41369,0.58523 0.53882,0.95654 0.12511,0.37132 0.18768,0.78503 0.18768,1.2411 z" />
        <path
           inkscape:connector-curvature="0"
           id="path5521"
           style="font-size:24px;font-style:normal;font-variant:normal;font-weight:normal;font-stretch:normal;line-height:0%;letter-spacing:0px;word-spacing:0px;fill:#000000;fill-opacity:1;stroke:none;font-family:Corbel;-inkscape-font-specification:Corbel"
           d="m 179.83945,-33.711892 0.0182,0 c 0.10493,-0.13319 0.22096,-0.25729 0.34811,-0.37233 0.12714,-0.11502 0.2694,-0.21592 0.42681,-0.3027 0.15742,-0.0867 0.32995,-0.15439 0.51763,-0.20281 0.18768,-0.0484 0.3925,-0.0726 0.61449,-0.0726 0.26234,0 0.50854,0.0363 0.73861,0.10902 0.23005,0.0726 0.42984,0.18969 0.59935,0.35113 0.16952,0.16144 0.30371,0.37233 0.40261,0.63265 0.0989,0.26034 0.14831,0.5802 0.14831,0.95957 l 0,3.85043 -0.93837,0 0,-3.69907 c -1e-5,-0.49644 -0.0958,-0.85362 -0.28759,-1.07158 -0.19171,-0.21794 -0.47121,-0.32692 -0.83849,-0.32692 -0.32289,0 -0.63569,0.0898 -0.93839,0.26941 -0.3027,0.17961 -0.56304,0.42681 -0.78098,0.74162 l 0,4.08654 -0.93839,0 0,-5.7514 0.7265,0 z" />
        <path
           inkscape:connector-curvature="0"
           id="path5523"
           style="font-size:24px;font-style:normal;font-variant:normal;font-weight:normal;font-stretch:normal;line-height:0%;letter-spacing:0px;word-spacing:0px;fill:#000000;fill-opacity:1;stroke:none;font-family:Corbel;-inkscape-font-specification:Corbel"
           d="m 192.02034,-36.133532 c -0.44801,1e-5 -0.86675,0.0717 -1.25622,0.21491 -0.38949,0.14329 -0.72751,0.3572 -1.01407,0.64174 -0.28656,0.28455 -0.51259,0.6377 -0.67807,1.05947 -0.16548,0.42178 -0.24821,0.91316 -0.24821,1.47418 0,0.55698 0.0767,1.0403 0.23005,1.44996 0.15337,0.40966 0.37132,0.7487 0.65385,1.01709 0.28253,0.2684 0.62257,0.46718 1.02012,0.59633 0.39755,0.12915 0.84051,0.19374 1.32888,0.19374 0.13319,0 0.27444,-0.008 0.42378,-0.0212 0.14934,-0.0141 0.29967,-0.0343 0.45104,-0.0606 0.15134,-0.0264 0.29867,-0.0565 0.44194,-0.0908 0.14328,-0.0343 0.27143,-0.0716 0.38444,-0.11201 l 0,0.8718 c -0.23814,0.0929 -0.5146,0.16447 -0.82941,0.2149 -0.31482,0.0504 -0.6377,0.0757 -0.96866,0.0757 -0.67403,0 -1.27136,-0.0939 -1.79202,-0.28151 -0.52066,-0.18768 -0.95755,-0.45709 -1.31072,-0.80822 -0.35315,-0.35114 -0.62055,-0.77998 -0.80216,-1.28651 -0.18162,-0.50652 -0.27244,-1.08065 -0.27244,-1.72239 0,-0.62964 0.0958,-1.2088 0.28756,-1.73753 0.19172,-0.52873 0.46819,-0.98278 0.82942,-1.36218 0.36123,-0.37939 0.79916,-0.67503 1.31374,-0.88692 0.5146,-0.2119 1.09277,-0.31783 1.73451,-0.31784 0.16951,1e-5 0.33701,0.008 0.5025,0.0212 0.16547,0.0142 0.32389,0.0343 0.47524,0.0605 0.15135,0.0264 0.2916,0.0576 0.42077,0.0939 0.12913,0.0364 0.24013,0.0746 0.33298,0.11504 l 0,0.87179 c -0.24218,-0.0808 -0.50654,-0.14832 -0.7931,-0.20282 -0.28657,-0.0544 -0.57514,-0.0818 -0.86574,-0.0818 z" />
        <path
           inkscape:connector-curvature="0"
           id="path5525"
           style="font-size:24px;font-style:normal;font-variant:normal;font-weight:normal;font-stretch:normal;line-height:0%;letter-spacing:0px;word-spacing:0px;fill:#000000;fill-opacity:1;stroke:none;font-family:Corbel;-inkscape-font-specification:Corbel"
           d="m 198.64354,-29.395302 -0.0243,0 c -0.0767,0.0969 -0.17355,0.19272 -0.2906,0.28757 -0.11705,0.0948 -0.25226,0.17961 -0.40563,0.25427 -0.15337,0.0746 -0.32086,0.13419 -0.5025,0.17859 -0.18162,0.0444 -0.37534,0.0665 -0.58118,0.0665 -0.27849,0 -0.53377,-0.0414 -0.76584,-0.12411 -0.23207,-0.0828 -0.43186,-0.20382 -0.59936,-0.36324 -0.1675,-0.15942 -0.29767,-0.35417 -0.3905,-0.58422 -0.0929,-0.23007 -0.13924,-0.49039 -0.13924,-0.78099 0,-0.28656 0.0514,-0.54284 0.15437,-0.76888 0.10295,-0.22602 0.24721,-0.41773 0.43288,-0.57514 0.18566,-0.15739 0.40865,-0.27848 0.66898,-0.36324 0.26032,-0.0847 0.54789,-0.12713 0.8627,-0.12714 0.29868,0.003 0.57515,0.0303 0.82943,0.0787 0.25426,0.0484 0.48028,0.10901 0.67806,0.18164 l 0.0243,0 0,-0.39957 c 0,-0.15741 -0.01,-0.29665 -0.0302,-0.41774 -0.0202,-0.12108 -0.0544,-0.22804 -0.10295,-0.32088 -0.10504,-0.19372 -0.27243,-0.35415 -0.50249,-0.4813 -0.23004,-0.12711 -0.54083,-0.1907 -0.93233,-0.1907 -0.2906,0 -0.56404,0.0273 -0.82032,0.0819 -0.2563,0.0544 -0.51159,0.13018 -0.76585,0.22704 l 0,-0.78704 c 0.0969,-0.0484 0.21089,-0.0937 0.34205,-0.13621 0.13118,-0.0424 0.2694,-0.0787 0.4147,-0.10902 0.14531,-0.0302 0.29868,-0.0535 0.46013,-0.0697 0.16143,-0.0162 0.32288,-0.0243 0.48431,-0.0243 0.5812,2e-5 1.05645,0.10295 1.42576,0.30876 0.36929,0.20585 0.63466,0.4783 0.79613,0.81731 0.0606,0.12915 0.10393,0.27142 0.13014,0.42682 0.0263,0.15539 0.0394,0.32591 0.0394,0.51157 l 0,3.83831 -0.78704,0 z m -0.0484,-1.88889 c -0.17355,-0.0484 -0.3794,-0.0948 -0.61752,-0.13925 -0.23813,-0.0444 -0.50047,-0.0686 -0.78703,-0.0726 -0.39958,10e-6 -0.71238,0.0847 -0.93839,0.25427 -0.22602,0.16952 -0.33903,0.42985 -0.33903,0.78098 0,0.1776 0.0283,0.33299 0.0847,0.46618 0.0565,0.13318 0.13421,0.24317 0.23309,0.32994 0.0989,0.0867 0.21592,0.15136 0.35114,0.19374 0.13522,0.0424 0.2795,0.0636 0.43287,0.0636 0.20181,0 0.38948,-0.0291 0.56303,-0.0877 0.17356,-0.0585 0.32794,-0.12813 0.46315,-0.20887 0.13521,-0.0808 0.25022,-0.16143 0.34508,-0.24216 0.0948,-0.0808 0.16447,-0.14328 0.20887,-0.18767 z" />
        <path
           inkscape:connector-curvature="0"
           id="path5527"
           style="font-size:24px;font-style:normal;font-variant:normal;font-weight:normal;font-stretch:normal;line-height:0%;letter-spacing:0px;word-spacing:0px;fill:#000000;fill-opacity:1;stroke:none;font-family:Corbel;-inkscape-font-specification:Corbel"
           d="m 205.4726,-31.689822 c 0,-0.33499 -0.0353,-0.63567 -0.10604,-0.90205 -0.0706,-0.26638 -0.17659,-0.49341 -0.31784,-0.6811 -0.14128,-0.18767 -0.31482,-0.33196 -0.52065,-0.43286 -0.20585,-0.10084 -0.44398,-0.15136 -0.71439,-0.15136 -0.19374,0 -0.37032,0.0264 -0.52974,0.0787 -0.15942,0.0524 -0.30372,0.11907 -0.43286,0.19978 -0.12917,0.0808 -0.24015,0.16751 -0.33298,0.26033 -0.0929,0.0929 -0.1675,0.17557 -0.22401,0.24822 l 0,3.0089 c 0.19777,0.20181 0.42279,0.36123 0.67503,0.47827 0.25227,0.11705 0.52368,0.17558 0.81429,0.17558 0.17758,0 0.36525,-0.0332 0.56303,-0.0999 0.19777,-0.0665 0.3804,-0.18567 0.54791,-0.35719 0.16749,-0.17154 0.30571,-0.40462 0.4147,-0.69926 0.10891,-0.29462 0.16346,-0.66998 0.16346,-1.12606 z m 0.98076,-0.0121 c -1e-5,0.39957 -0.0394,0.75374 -0.11806,1.06249 -0.0787,0.30877 -0.18263,0.57817 -0.31177,0.80822 -0.12918,0.23006 -0.28052,0.42279 -0.45408,0.57818 -0.17355,0.15539 -0.35315,0.2805 -0.53881,0.37535 -0.18565,0.0949 -0.37435,0.16346 -0.56606,0.20585 -0.1917,0.0424 -0.37234,0.0636 -0.54184,0.0636 -0.35114,0 -0.65586,-0.0576 -0.91416,-0.17254 -0.25832,-0.11501 -0.49039,-0.28555 -0.69624,-0.51157 l -0.0182,0 0,3.34794 -0.9384,0 0,-8.56658 0.70835,0 0.19978,0.65384 0.0181,0 c 0.0524,-0.0808 0.12007,-0.15942 0.20281,-0.23611 0.0828,-0.0767 0.19373,-0.15841 0.33298,-0.2452 0.13923,-0.0867 0.30674,-0.16243 0.5025,-0.22703 0.19573,-0.0645 0.40864,-0.0969 0.6387,-0.0969 0.32288,1e-5 0.63466,0.0545 0.93536,0.16347 0.30069,0.10901 0.56606,0.28253 0.79612,0.52065 0.23005,0.23814 0.41469,0.54387 0.55395,0.9172 0.13924,0.37334 0.20886,0.8264 0.20886,1.35916 z" />
        <path
           inkscape:connector-curvature="0"
           id="path5529"
           style="font-size:24px;font-style:normal;font-variant:normal;font-weight:normal;font-stretch:normal;line-height:0%;letter-spacing:0px;word-spacing:0px;fill:#000000;fill-opacity:1;stroke:none;font-family:Corbel;-inkscape-font-specification:Corbel"
           d="m 210.97579,-28.747502 c -0.0808,0.0323 -0.20384,0.0625 -0.36931,0.0908 -0.16547,0.0282 -0.36324,0.0444 -0.59329,0.0484 -0.30271,0 -0.56506,-0.0374 -0.78705,-0.11201 -0.22197,-0.0746 -0.40663,-0.18162 -0.55395,-0.32086 -0.14731,-0.13925 -0.25729,-0.30776 -0.32995,-0.50552 -0.0726,-0.19777 -0.1089,-0.41774 -0.1089,-0.65989 l 0,-3.49928 -1.10792,0 0,-0.8052 1.10792,0 0,-1.57408 0.93837,0 0,1.57408 1.71938,0 0,0.8052 -1.71938,0 0,3.35398 c 0,0.13319 0.0191,0.25628 0.0576,0.3693 0.0384,0.113 0.0989,0.21087 0.18163,0.29361 0.0828,0.0828 0.18868,0.14734 0.31783,0.19373 0.12916,0.0465 0.28454,0.0697 0.46617,0.0697 0.12512,0 0.2573,-0.01 0.39654,-0.0302 0.13925,-0.0202 0.26739,-0.0465 0.38444,-0.0787 z" />
        <path
           inkscape:connector-curvature="0"
           id="path5531"
           style="font-size:24px;font-style:normal;font-variant:normal;font-weight:normal;font-stretch:normal;line-height:0%;letter-spacing:0px;word-spacing:0px;fill:#000000;fill-opacity:1;stroke:none;font-family:Corbel;-inkscape-font-specification:Corbel"
           d="m 214.53561,-28.608262 c -0.29867,0 -0.56708,-0.0323 -0.8052,-0.0969 -0.23812,-0.0645 -0.447,-0.1554 -0.6266,-0.27246 -0.17961,-0.11704 -0.33196,-0.2573 -0.45709,-0.42075 -0.12511,-0.16346 -0.22401,-0.34206 -0.29665,-0.53578 -0.0565,-0.14531 -0.0969,-0.30474 -0.12108,-0.4783 -0.0243,-0.17354 -0.0364,-0.36323 -0.0364,-0.56907 l 0,-3.52955 0.93838,0 0,3.52348 c 0,0.31886 0.0424,0.58525 0.12715,0.79915 0.0969,0.24217 0.25326,0.43288 0.46919,0.57212 0.21593,0.13925 0.49139,0.20887 0.82639,0.20887 0.35516,0 0.64072,-0.0767 0.85665,-0.23006 0.21592,-0.15337 0.37031,-0.35922 0.46314,-0.61753 0.0686,-0.19775 0.10294,-0.44195 0.10294,-0.73255 l 0,-3.52348 0.9384,0 0,3.5356 c -2e-5,0.19373 -0.0111,0.37435 -0.0333,0.54185 -0.0222,0.16749 -0.0575,0.32187 -0.10592,0.46313 -0.0727,0.19776 -0.17255,0.3804 -0.29968,0.54791 -0.12714,0.1675 -0.28354,0.31177 -0.46919,0.43286 -0.18567,0.12108 -0.40058,0.21491 -0.64476,0.28151 -0.24419,0.0665 -0.51966,0.0999 -0.82639,0.0999 z" />
        <path
           inkscape:connector-curvature="0"
           id="path5533"
           style="font-size:24px;font-style:normal;font-variant:normal;font-weight:normal;font-stretch:normal;line-height:0%;letter-spacing:0px;word-spacing:0px;fill:#000000;fill-opacity:1;stroke:none;font-family:Corbel;-inkscape-font-specification:Corbel"
           d="m 221.82477,-33.748212 -0.0726,0 c -0.22201,0 -0.43996,0.0202 -0.65387,0.0605 -0.21391,0.0403 -0.41471,0.10195 -0.60237,0.18465 -0.18768,0.0827 -0.3572,0.18466 -0.50856,0.30574 -0.15134,0.12109 -0.27748,0.26434 -0.37838,0.42983 l 0,4.00784 -0.93838,0 0,-5.75142 0.7265,0 0.18162,0.91417 0.0181,0 c 0.0929,-0.14932 0.20686,-0.28857 0.34207,-0.41773 0.1352,-0.12916 0.28757,-0.24216 0.45709,-0.33904 0.16951,-0.0969 0.35515,-0.17253 0.55696,-0.22702 0.20181,-0.0544 0.4137,-0.0818 0.63569,-0.0818 0.0403,0 0.0818,9.4e-4 0.12411,0.003 0.0424,0.002 0.0798,0.004 0.112,0.01 z" />
        <path
           inkscape:connector-curvature="0"
           id="path5535"
           style="font-size:24px;font-style:normal;font-variant:normal;font-weight:normal;font-stretch:normal;line-height:0%;letter-spacing:0px;word-spacing:0px;fill:#000000;fill-opacity:1;stroke:none;font-family:Corbel;-inkscape-font-specification:Corbel"
           d="m 225.08793,-33.857192 c -0.21391,0 -0.41268,0.0423 -0.59632,0.12713 -0.18364,0.0847 -0.34408,0.19979 -0.48131,0.34509 -0.13722,0.1453 -0.24821,0.31583 -0.33298,0.51157 -0.0847,0.19576 -0.13722,0.40463 -0.1574,0.62661 l 2.90597,0 c -1e-5,-0.22602 -0.0292,-0.4369 -0.0878,-0.63267 -0.0586,-0.19573 -0.14429,-0.36626 -0.2573,-0.51155 -0.11302,-0.1453 -0.25227,-0.25933 -0.41774,-0.34207 -0.16548,-0.0828 -0.35719,-0.12411 -0.57514,-0.12411 z m 0.51461,4.43161 c 0.31078,0 0.5943,-0.0253 0.85061,-0.0757 0.25628,-0.0504 0.51157,-0.12207 0.76583,-0.21492 l 0,0.78098 c -0.20583,0.10096 -0.46012,0.18061 -0.76281,0.23914 -0.30271,0.0585 -0.62762,0.0877 -0.97472,0.0877 -0.41167,0 -0.79813,-0.0524 -1.15935,-0.15741 -0.36124,-0.10482 -0.67706,-0.27446 -0.94748,-0.50855 -0.27041,-0.2341 -0.48332,-0.53982 -0.63871,-0.9172 -0.15539,-0.37738 -0.23308,-0.83244 -0.23308,-1.3652 0,-0.52468 0.0726,-0.97975 0.21795,-1.36521 0.14529,-0.38543 0.33903,-0.70732 0.5812,-0.96563 0.24214,-0.25831 0.52065,-0.45203 0.83546,-0.58119 0.3148,-0.12915 0.64375,-0.19373 0.98682,-0.19373 0.32288,0 0.62459,0.0535 0.90509,0.16043 0.2805,0.10692 0.52369,0.27546 0.72952,0.50553 0.20585,0.23005 0.36829,0.52671 0.48737,0.88994 0.11905,0.36326 0.17858,0.79915 0.17859,1.3077 -10e-6,0.0484 -10e-6,0.0898 0,0.12411 -10e-6,0.0343 -0.002,0.112 -0.007,0.23307 l -3.94729,0 c 0,0.3673 0.0555,0.67907 0.16648,0.93536 0.111,0.25631 0.26236,0.46416 0.45407,0.62358 0.19171,0.15943 0.41672,0.27546 0.67504,0.34812 0.2583,0.0726 0.53679,0.1089 0.83546,0.1089 z" />
        <path
           inkscape:connector-curvature="0"
           id="path5537"
           style="font-size:24px;font-style:normal;font-variant:normal;font-weight:normal;font-stretch:normal;line-height:0%;letter-spacing:0px;word-spacing:0px;fill:#000000;fill-opacity:1;stroke:none;font-family:Corbel;-inkscape-font-specification:Corbel"
           d="m 232.37709,-34.716882 c 0,0.23815 0.0484,0.4349 0.1453,0.59028 0.0969,0.1554 0.22703,0.28355 0.3905,0.38444 0.16346,0.10096 0.35316,0.18366 0.56908,0.24822 0.21593,0.0645 0.44093,0.12512 0.67504,0.18162 0.31481,0.0767 0.62458,0.16145 0.9293,0.25428 0.30472,0.0929 0.57614,0.22097 0.81429,0.38443 0.23812,0.16346 0.43084,0.37636 0.57817,0.63871 0.1473,0.26234 0.22096,0.59936 0.22097,1.01104 -1e-5,0.41975 -0.0777,0.78199 -0.23309,1.08671 -0.15539,0.30473 -0.37132,0.55496 -0.64779,0.75072 -0.27647,0.19574 -0.60642,0.34105 -0.98985,0.43589 -0.38342,0.0948 -0.80318,0.14228 -1.25924,0.14228 -0.20989,0 -0.42481,-0.0131 -0.64478,-0.0393 -0.21996,-0.0264 -0.42984,-0.0616 -0.62962,-0.10592 -0.19979,-0.0444 -0.3804,-0.0948 -0.54185,-0.15135 -0.16144,-0.0565 -0.28858,-0.11301 -0.3814,-0.16951 l 0,-0.90207 c 0.1453,0.0727 0.30874,0.13925 0.49037,0.19979 0.18163,0.0605 0.3693,0.112 0.56305,0.15438 0.19372,0.0423 0.38946,0.0757 0.58724,0.0999 0.19777,0.0243 0.38342,0.0364 0.55699,0.0364 0.28251,0 0.55192,-0.0243 0.80821,-0.0726 0.2563,-0.0484 0.48131,-0.12914 0.67504,-0.24217 0.19372,-0.113 0.3471,-0.26739 0.46011,-0.46313 0.11301,-0.19575 0.16951,-0.44094 0.16951,-0.73558 0,-0.24216 -0.0493,-0.44195 -0.14832,-0.59936 -0.0989,-0.1574 -0.23107,-0.28757 -0.39654,-0.39048 -0.16548,-0.10295 -0.35619,-0.18668 -0.57211,-0.25125 -0.21594,-0.0645 -0.44298,-0.12512 -0.6811,-0.18162 -0.31481,-0.0726 -0.62257,-0.1544 -0.92325,-0.24521 -0.30069,-0.0908 -0.56908,-0.21693 -0.8052,-0.37838 -0.23611,-0.16143 -0.4258,-0.3693 -0.56908,-0.62356 -0.14329,-0.25428 -0.21492,-0.57918 -0.21492,-0.97472 0,-0.41167 0.0726,-0.76584 0.21795,-1.0625 0.14529,-0.29664 0.34306,-0.54183 0.5933,-0.73557 0.25022,-0.19372 0.54284,-0.33701 0.87784,-0.42985 0.33499,-0.0929 0.69218,-0.13923 1.07158,-0.13924 0.43185,10e-6 0.83445,0.0414 1.20781,0.12411 0.37333,0.0828 0.71537,0.19071 1.02616,0.32389 l 0,0.91417 c -0.335,-0.14125 -0.68109,-0.25629 -1.03828,-0.34509 -0.3572,-0.0888 -0.73962,-0.1352 -1.14726,-0.13923 -0.30674,10e-6 -0.57312,0.0333 -0.79914,0.0999 -0.22602,0.0665 -0.4137,0.16145 -0.56303,0.28453 -0.14935,0.12311 -0.26032,0.27245 -0.33298,0.44801 -0.0726,0.17558 -0.10902,0.37033 -0.10902,0.58422 z" />
        <path
           inkscape:connector-curvature="0"
           id="path5539"
           style="font-size:24px;font-style:normal;font-variant:normal;font-weight:normal;font-stretch:normal;line-height:0%;letter-spacing:0px;word-spacing:0px;fill:#000000;fill-opacity:1;stroke:none;font-family:Corbel;-inkscape-font-specification:Corbel"
           d="m 238.4191,-28.759622 0,-5.75141 0.93839,0 0,5.75141 z m -0.0243,-7.08937 0,-1.04737 0.98683,0 0,1.04737 z" />
        <path
           inkscape:connector-curvature="0"
           id="path5541"
           style="font-size:24px;font-style:normal;font-variant:normal;font-weight:normal;font-stretch:normal;line-height:0%;letter-spacing:0px;word-spacing:0px;fill:#000000;fill-opacity:1;stroke:none;font-family:Corbel;-inkscape-font-specification:Corbel"
           d="m 245.93832,-28.759622 -0.93838,0 0,-3.69906 c -1e-5,-0.25024 -0.0273,-0.46315 -0.0818,-0.63872 -0.0545,-0.17557 -0.1332,-0.31986 -0.23612,-0.43287 -0.10294,-0.11301 -0.22602,-0.19574 -0.3693,-0.24821 -0.14328,-0.0524 -0.30372,-0.0787 -0.4813,-0.0787 -0.335,0 -0.63972,0.0898 -0.91418,0.26941 -0.27445,0.17961 -0.52065,0.42681 -0.73859,0.74163 l 0,4.08654 -0.9384,0 0,-5.75142 0.7265,0 0.18162,0.79914 0.0181,0 c 0.10504,-0.13319 0.21894,-0.25729 0.34205,-0.37233 0.1231,-0.11503 0.26032,-0.21593 0.41168,-0.30271 0.15134,-0.0867 0.31783,-0.15437 0.49946,-0.20281 0.18162,-0.0484 0.37938,-0.0727 0.59331,-0.0727 0.42781,0 0.78299,0.10294 1.06551,0.30876 0.28252,0.20584 0.50047,0.48636 0.65385,0.84152 l 0.0243,0 c 0.25426,-0.3592 0.54486,-0.64072 0.87178,-0.84455 0.32693,-0.20381 0.70834,-0.30573 1.14424,-0.30573 0.2018,0 0.41571,0.0283 0.64174,0.0847 0.22601,0.0565 0.43386,0.16044 0.62357,0.31178 0.18968,0.15136 0.34709,0.36022 0.47222,0.6266 0.1251,0.26639 0.18766,0.60945 0.18768,1.02919 l 0,3.85044 -0.93234,0 0,-3.69908 c -1e-5,-0.25023 -0.0273,-0.46313 -0.0818,-0.6387 -0.0545,-0.17557 -0.1332,-0.31987 -0.23611,-0.43288 -0.10295,-0.11301 -0.22603,-0.19574 -0.36931,-0.24821 -0.14329,-0.0524 -0.30371,-0.0787 -0.4813,-0.0787 -0.335,0 -0.64074,0.0898 -0.9172,0.2694 -0.27649,0.17962 -0.52369,0.42682 -0.74163,0.74163 z" />
        <path
           inkscape:connector-curvature="0"
           id="path5543"
           style="font-size:24px;font-style:normal;font-variant:normal;font-weight:normal;font-stretch:normal;line-height:0%;letter-spacing:0px;word-spacing:0px;fill:#000000;fill-opacity:1;stroke:none;font-family:Corbel;-inkscape-font-specification:Corbel"
           d="m 253.79052,-28.608262 c -0.29867,0 -0.56707,-0.0323 -0.8052,-0.0969 -0.23813,-0.0645 -0.447,-0.1554 -0.6266,-0.27246 -0.17961,-0.11704 -0.33197,-0.2573 -0.45709,-0.42075 -0.12511,-0.16346 -0.224,-0.34206 -0.29666,-0.53578 -0.0565,-0.14531 -0.0969,-0.30474 -0.12107,-0.4783 -0.0243,-0.17354 -0.0363,-0.36323 -0.0363,-0.56907 l 0,-3.52955 0.93838,0 0,3.52348 c 0,0.31886 0.0424,0.58525 0.12713,0.79915 0.0969,0.24217 0.25327,0.43288 0.4692,0.57212 0.21594,0.13925 0.4914,0.20887 0.82639,0.20887 0.35517,0 0.64073,-0.0767 0.85666,-0.23006 0.21592,-0.15337 0.3703,-0.35922 0.46313,-0.61753 0.0686,-0.19775 0.10295,-0.44195 0.10295,-0.73255 l 0,-3.52348 0.93839,0 0,3.5356 c 0,0.19373 -0.0111,0.37435 -0.0333,0.54185 -0.0222,0.16749 -0.0575,0.32187 -0.10593,0.46313 -0.0727,0.19776 -0.17254,0.3804 -0.29967,0.54791 -0.12715,0.1675 -0.28354,0.31177 -0.4692,0.43286 -0.18566,0.12108 -0.40058,0.21491 -0.64476,0.28151 -0.24419,0.0665 -0.51966,0.0999 -0.82639,0.0999 z" />
        <path
           inkscape:connector-curvature="0"
           id="path5545"
           style="font-size:24px;font-style:normal;font-variant:normal;font-weight:normal;font-stretch:normal;line-height:0%;letter-spacing:0px;word-spacing:0px;fill:#000000;fill-opacity:1;stroke:none;font-family:Corbel;-inkscape-font-specification:Corbel"
           d="m 257.98602,-28.759622 0,-8.76637 0.93838,0 0,8.76637 z" />
        <path
           inkscape:connector-curvature="0"
           id="path5547"
           style="font-size:24px;font-style:normal;font-variant:normal;font-weight:normal;font-stretch:normal;line-height:0%;letter-spacing:0px;word-spacing:0px;fill:#000000;fill-opacity:1;stroke:none;font-family:Corbel;-inkscape-font-specification:Corbel"
           d="m 264.17333,-29.395302 -0.0243,0 c -0.0767,0.0969 -0.17355,0.19272 -0.2906,0.28757 -0.11704,0.0948 -0.25225,0.17961 -0.40562,0.25427 -0.15337,0.0746 -0.32086,0.13419 -0.50249,0.17859 -0.18163,0.0444 -0.37536,0.0665 -0.5812,0.0665 -0.27849,0 -0.53377,-0.0414 -0.76584,-0.12411 -0.23208,-0.0828 -0.43186,-0.20382 -0.59936,-0.36324 -0.1675,-0.15942 -0.29766,-0.35417 -0.39049,-0.58422 -0.0928,-0.23007 -0.13925,-0.49039 -0.13925,-0.78099 0,-0.28656 0.0514,-0.54284 0.15439,-0.76888 0.10294,-0.22602 0.2472,-0.41773 0.43287,-0.57514 0.18565,-0.15739 0.40865,-0.27848 0.66898,-0.36324 0.26032,-0.0847 0.54789,-0.12713 0.86271,-0.12714 0.29866,0.003 0.57514,0.0303 0.82941,0.0787 0.25427,0.0484 0.48029,0.10901 0.67806,0.18164 l 0.0243,0 0,-0.39957 c -1e-5,-0.15741 -0.01,-0.29665 -0.0302,-0.41774 -0.0202,-0.12108 -0.0545,-0.22804 -0.10295,-0.32088 -0.10493,-0.19372 -0.27244,-0.35415 -0.50249,-0.4813 -0.23006,-0.12711 -0.54083,-0.1907 -0.93234,-0.1907 -0.29059,0 -0.56403,0.0273 -0.82033,0.0819 -0.25629,0.0544 -0.51157,0.13018 -0.76585,0.22704 l 0,-0.78704 c 0.0969,-0.0484 0.21089,-0.0937 0.34206,-0.13621 0.13117,-0.0424 0.26941,-0.0787 0.41471,-0.10902 0.14529,-0.0302 0.29866,-0.0535 0.46011,-0.0697 0.16145,-0.0162 0.32288,-0.0243 0.48433,-0.0243 0.5812,2e-5 1.05645,0.10295 1.42575,0.30876 0.3693,0.20585 0.63466,0.4783 0.79612,0.81731 0.0606,0.12915 0.10394,0.27142 0.13016,0.42682 0.0263,0.15539 0.0394,0.32591 0.0394,0.51157 l 0,3.83831 -0.78703,0 z m -0.0484,-1.88889 c -0.17355,-0.0484 -0.37939,-0.0948 -0.61752,-0.13925 -0.23813,-0.0444 -0.50047,-0.0686 -0.78703,-0.0726 -0.39958,10e-6 -0.71237,0.0847 -0.9384,0.25427 -0.22601,0.16952 -0.33902,0.42985 -0.33902,0.78098 0,0.1776 0.0283,0.33299 0.0847,0.46618 0.0565,0.13318 0.1342,0.24317 0.23309,0.32994 0.0989,0.0867 0.21592,0.15136 0.35113,0.19374 0.13521,0.0424 0.2795,0.0636 0.43287,0.0636 0.2018,0 0.38948,-0.0291 0.56304,-0.0877 0.17354,-0.0585 0.32793,-0.12813 0.46313,-0.20887 0.1352,-0.0808 0.25024,-0.16143 0.34509,-0.24216 0.0948,-0.0808 0.16447,-0.14328 0.20887,-0.18767 z" />
        <path
           inkscape:connector-curvature="0"
           id="path5549"
           style="font-size:24px;font-style:normal;font-variant:normal;font-weight:normal;font-stretch:normal;line-height:0%;letter-spacing:0px;word-spacing:0px;fill:#000000;fill-opacity:1;stroke:none;font-family:Corbel;-inkscape-font-specification:Corbel"
           d="m 269.91868,-28.747502 c -0.0808,0.0323 -0.20382,0.0625 -0.36929,0.0908 -0.16548,0.0282 -0.36325,0.0444 -0.59331,0.0484 -0.3027,0 -0.56505,-0.0374 -0.78703,-0.11201 -0.22199,-0.0746 -0.40664,-0.18162 -0.55395,-0.32086 -0.14732,-0.13925 -0.2573,-0.30776 -0.32996,-0.50552 -0.0726,-0.19777 -0.10901,-0.41774 -0.10901,-0.65989 l 0,-3.49928 -1.10791,0 0,-0.8052 1.10791,0 0,-1.57408 0.93838,0 0,1.57408 1.71938,0 0,0.8052 -1.71938,0 0,3.35398 c 0,0.13319 0.0192,0.25628 0.0575,0.3693 0.0383,0.113 0.0989,0.21087 0.18162,0.29361 0.0828,0.0828 0.18868,0.14734 0.31784,0.19373 0.12915,0.0465 0.28454,0.0697 0.46617,0.0697 0.12511,0 0.2573,-0.01 0.39655,-0.0302 0.13923,-0.0202 0.26738,-0.0465 0.38444,-0.0787 z" />
        <path
           inkscape:connector-curvature="0"
           id="path5551"
           style="font-size:24px;font-style:normal;font-variant:normal;font-weight:normal;font-stretch:normal;line-height:0%;letter-spacing:0px;word-spacing:0px;fill:#000000;fill-opacity:1;stroke:none;font-family:Corbel;-inkscape-font-specification:Corbel"
           d="m 271.25665,-28.759622 0,-5.75141 0.93839,0 0,5.75141 z m -0.0243,-7.08937 0,-1.04737 0.98682,0 0,1.04737 z" />
        <path
           inkscape:connector-curvature="0"
           id="path5553"
           style="font-size:24px;font-style:normal;font-variant:normal;font-weight:normal;font-stretch:normal;line-height:0%;letter-spacing:0px;word-spacing:0px;fill:#000000;fill-opacity:1;stroke:none;font-family:Corbel;-inkscape-font-specification:Corbel"
           d="m 278.22495,-31.629272 c -10e-6,-0.35518 -0.0434,-0.671 -0.13018,-0.94748 -0.0868,-0.27646 -0.20786,-0.51055 -0.36324,-0.70227 -0.15539,-0.19171 -0.34005,-0.337 -0.55396,-0.4359 -0.21391,-0.0989 -0.448,-0.14833 -0.70227,-0.14833 -0.25428,0 -0.48837,0.0495 -0.70228,0.14833 -0.21391,0.0989 -0.39856,0.24419 -0.55395,0.4359 -0.15539,0.19172 -0.27648,0.42581 -0.36325,0.70227 -0.0867,0.27648 -0.13016,0.5923 -0.13016,0.94748 0,0.35113 0.0434,0.66495 0.13016,0.94142 0.0868,0.27646 0.20887,0.50955 0.36628,0.69924 0.1574,0.1897 0.34305,0.334 0.55698,0.43287 0.2139,0.0989 0.44799,0.14833 0.70228,0.14833 0.25426,0 0.48734,-0.0494 0.69925,-0.14833 0.21188,-0.0989 0.39553,-0.24317 0.55092,-0.43287 0.15538,-0.18969 0.27647,-0.42278 0.36324,-0.69924 0.0867,-0.27647 0.13017,-0.59029 0.13018,-0.94142 z m 0.98076,0 c -1e-5,0.45204 -0.0645,0.86373 -0.19374,1.23504 -0.12915,0.37132 -0.31179,0.68915 -0.54789,0.95352 -0.23612,0.26437 -0.52168,0.4692 -0.85666,0.61449 -0.335,0.14531 -0.71035,0.21796 -1.12606,0.21796 -0.42784,0 -0.81026,-0.0726 -1.14726,-0.21796 -0.33701,-0.14529 -0.62358,-0.35012 -0.85969,-0.61449 -0.23611,-0.26437 -0.41672,-0.5822 -0.54184,-0.95352 -0.12513,-0.37131 -0.18768,-0.783 -0.18768,-1.23504 0,-0.45607 0.0645,-0.86978 0.19374,-1.2411 0.12915,-0.37131 0.31178,-0.69017 0.54789,-0.95654 0.23611,-0.26639 0.52267,-0.47223 0.85968,-0.61752 0.33702,-0.1453 0.71338,-0.21795 1.1291,-0.21795 0.42378,0 0.8052,0.0726 1.14423,0.21795 0.33902,0.14529 0.62559,0.35113 0.85968,0.61752 0.23409,0.26637 0.41369,0.58523 0.53881,0.95654 0.12512,0.37132 0.18768,0.78503 0.18769,1.2411 z" />
        <path
           inkscape:connector-curvature="0"
           id="path5555"
           style="font-size:24px;font-style:normal;font-variant:normal;font-weight:normal;font-stretch:normal;line-height:0%;letter-spacing:0px;word-spacing:0px;fill:#000000;fill-opacity:1;stroke:none;font-family:Corbel;-inkscape-font-specification:Corbel"
           d="m 281.59708,-33.711892 0.0182,0 c 0.10493,-0.13319 0.22097,-0.25729 0.3481,-0.37233 0.12715,-0.11502 0.26942,-0.21592 0.42683,-0.3027 0.1574,-0.0867 0.32994,-0.15439 0.51763,-0.20281 0.18767,-0.0484 0.3925,-0.0726 0.61448,-0.0726 0.26235,0 0.50855,0.0363 0.7386,0.10902 0.23006,0.0726 0.42985,0.18969 0.59936,0.35113 0.16951,0.16144 0.30372,0.37233 0.4026,0.63265 0.0989,0.26034 0.14832,0.5802 0.14833,0.95957 l 0,3.85043 -0.93838,0 0,-3.69907 c -10e-6,-0.49644 -0.0959,-0.85362 -0.28758,-1.07158 -0.19172,-0.21794 -0.47122,-0.32692 -0.83849,-0.32692 -0.32289,0 -0.63569,0.0898 -0.93839,0.26941 -0.30272,0.17961 -0.56304,0.42681 -0.78099,0.74162 l 0,4.08654 -0.93838,0 0,-5.7514 0.72649,0 z" />
        <path
           inkscape:connector-curvature="0"
           id="path5557"
           style="font-size:24px;font-style:normal;font-variant:normal;font-weight:normal;font-stretch:normal;line-height:0%;letter-spacing:0px;word-spacing:0px;fill:#000000;fill-opacity:1;stroke:none;font-family:Corbel;-inkscape-font-specification:Corbel"
           d="m 289.84279,-28.759622 0,-8.10042 0.98682,0 0,8.10042 z" />
        <path
           inkscape:connector-curvature="0"
           id="path5559"
           style="font-size:24px;font-style:normal;font-variant:normal;font-weight:normal;font-stretch:normal;line-height:0%;letter-spacing:0px;word-spacing:0px;fill:#000000;fill-opacity:1;stroke:none;font-family:Corbel;-inkscape-font-specification:Corbel"
           d="m 293.68111,-33.711892 0.0182,0 c 0.10493,-0.13319 0.22097,-0.25729 0.34811,-0.37233 0.12713,-0.11502 0.26941,-0.21592 0.42681,-0.3027 0.15741,-0.0867 0.32995,-0.15439 0.51763,-0.20281 0.18767,-0.0484 0.3925,-0.0726 0.61449,-0.0726 0.26234,0 0.50854,0.0363 0.73861,0.10902 0.23005,0.0726 0.42983,0.18969 0.59936,0.35113 0.16951,0.16144 0.3037,0.37233 0.4026,0.63265 0.0989,0.26034 0.14831,0.5802 0.14833,0.95957 l 0,3.85043 -0.9384,0 0,-3.69907 c -10e-6,-0.49644 -0.0959,-0.85362 -0.28757,-1.07158 -0.19172,-0.21794 -0.47121,-0.32692 -0.8385,-0.32692 -0.32288,0 -0.63568,0.0898 -0.93838,0.26941 -0.30271,0.17961 -0.56303,0.42681 -0.78098,0.74162 l 0,4.08654 -0.9384,0 0,-5.7514 0.7265,0 z" />
        <path
           inkscape:connector-curvature="0"
           id="path5561"
           style="font-size:24px;font-style:normal;font-variant:normal;font-weight:normal;font-stretch:normal;line-height:0%;letter-spacing:0px;word-spacing:0px;fill:#000000;fill-opacity:1;stroke:none;font-family:Corbel;-inkscape-font-specification:Corbel"
           d="m 299.37198,-28.759622 0,-5.75141 0.93838,0 0,5.75141 z m -0.0243,-7.08937 0,-1.04737 0.98682,0 0,1.04737 z" />
        <path
           inkscape:connector-curvature="0"
           id="path5563"
           style="font-size:24px;font-style:normal;font-variant:normal;font-weight:normal;font-stretch:normal;line-height:0%;letter-spacing:0px;word-spacing:0px;fill:#000000;fill-opacity:1;stroke:none;font-family:Corbel;-inkscape-font-specification:Corbel"
           d="m 305.2263,-28.747502 c -0.0808,0.0323 -0.20382,0.0625 -0.36929,0.0908 -0.16548,0.0282 -0.36325,0.0444 -0.59331,0.0484 -0.3027,0 -0.56505,-0.0374 -0.78703,-0.11201 -0.22199,-0.0746 -0.40664,-0.18162 -0.55395,-0.32086 -0.14733,-0.13925 -0.2573,-0.30776 -0.32996,-0.50552 -0.0727,-0.19777 -0.10901,-0.41774 -0.10901,-0.65989 l 0,-3.49928 -1.10791,0 0,-0.8052 1.10791,0 0,-1.57408 0.93838,0 0,1.57408 1.71938,0 0,0.8052 -1.71938,0 0,3.35398 c 0,0.13319 0.0192,0.25628 0.0575,0.3693 0.0383,0.113 0.0989,0.21087 0.18163,0.29361 0.0827,0.0828 0.18867,0.14734 0.31784,0.19373 0.12915,0.0465 0.28454,0.0697 0.46616,0.0697 0.12512,0 0.2573,-0.01 0.39655,-0.0302 0.13923,-0.0202 0.26738,-0.0465 0.38444,-0.0787 z" />
        <path
           inkscape:connector-curvature="0"
           id="path5565"
           style="font-size:24px;font-style:normal;font-variant:normal;font-weight:normal;font-stretch:normal;line-height:0%;letter-spacing:0px;word-spacing:0px;fill:#000000;fill-opacity:1;stroke:none;font-family:Corbel;-inkscape-font-specification:Corbel"
           d="m 306.56427,-28.759622 0,-5.75141 0.93839,0 0,5.75141 z m -0.0243,-7.08937 0,-1.04737 0.98682,0 0,1.04737 z" />
        <path
           inkscape:connector-curvature="0"
           id="path5567"
           style="font-size:24px;font-style:normal;font-variant:normal;font-weight:normal;font-stretch:normal;line-height:0%;letter-spacing:0px;word-spacing:0px;fill:#000000;fill-opacity:1;stroke:none;font-family:Corbel;-inkscape-font-specification:Corbel"
           d="m 312.75158,-29.395302 -0.0243,0 c -0.0767,0.0969 -0.17356,0.19272 -0.2906,0.28757 -0.11706,0.0948 -0.25227,0.17961 -0.40562,0.25427 -0.15339,0.0746 -0.32088,0.13419 -0.5025,0.17859 -0.18162,0.0444 -0.37536,0.0665 -0.58119,0.0665 -0.2785,0 -0.53379,-0.0414 -0.76585,-0.12411 -0.23207,-0.0828 -0.43186,-0.20382 -0.59936,-0.36324 -0.1675,-0.15942 -0.29766,-0.35417 -0.39049,-0.58422 -0.0928,-0.23007 -0.13924,-0.49039 -0.13924,-0.78099 0,-0.28656 0.0514,-0.54284 0.15437,-0.76888 0.10295,-0.22602 0.24722,-0.41773 0.43287,-0.57514 0.18566,-0.15739 0.40865,-0.27848 0.66898,-0.36324 0.26032,-0.0847 0.5479,-0.12713 0.86272,-0.12714 0.29866,0.003 0.57513,0.0303 0.82941,0.0787 0.25427,0.0484 0.48029,0.10901 0.67806,0.18164 l 0.0243,0 0,-0.39957 c 0,-0.15741 -0.01,-0.29665 -0.0302,-0.41774 -0.0202,-0.12108 -0.0545,-0.22804 -0.10294,-0.32088 -0.10494,-0.19372 -0.27244,-0.35415 -0.5025,-0.4813 -0.23005,-0.12711 -0.54083,-0.1907 -0.93232,-0.1907 -0.2906,0 -0.56405,0.0273 -0.82034,0.0819 -0.2563,0.0544 -0.51158,0.13018 -0.76584,0.22704 l 0,-0.78704 c 0.0969,-0.0484 0.21088,-0.0937 0.34205,-0.13621 0.13117,-0.0424 0.26941,-0.0787 0.41471,-0.10902 0.1453,-0.0302 0.29867,-0.0535 0.46012,-0.0697 0.16143,-0.0162 0.32288,-0.0243 0.48433,-0.0243 0.58118,2e-5 1.05643,0.10295 1.42573,0.30876 0.36931,0.20585 0.63468,0.4783 0.79613,0.81731 0.0606,0.12915 0.10394,0.27142 0.13016,0.42682 0.0263,0.15539 0.0394,0.32591 0.0394,0.51157 l 0,3.83831 -0.78703,0 z m -0.0484,-1.88889 c -0.17356,-0.0484 -0.37939,-0.0948 -0.61753,-0.13925 -0.23813,-0.0444 -0.50047,-0.0686 -0.78703,-0.0726 -0.39957,10e-6 -0.71236,0.0847 -0.93838,0.25427 -0.22603,0.16952 -0.33904,0.42985 -0.33904,0.78098 0,0.1776 0.0283,0.33299 0.0847,0.46618 0.0565,0.13318 0.13421,0.24317 0.23309,0.32994 0.0989,0.0867 0.21592,0.15136 0.35113,0.19374 0.13522,0.0424 0.2795,0.0636 0.43288,0.0636 0.2018,0 0.38947,-0.0291 0.56304,-0.0877 0.17355,-0.0585 0.32792,-0.12813 0.46313,-0.20887 0.13521,-0.0808 0.25024,-0.16143 0.34508,-0.24216 0.0949,-0.0808 0.16447,-0.14328 0.20887,-0.18767 z" />
        <path
           inkscape:connector-curvature="0"
           id="path5569"
           style="font-size:24px;font-style:normal;font-variant:normal;font-weight:normal;font-stretch:normal;line-height:0%;letter-spacing:0px;word-spacing:0px;fill:#000000;fill-opacity:1;stroke:none;font-family:Corbel;-inkscape-font-specification:Corbel"
           d="m 318.49694,-28.747502 c -0.0808,0.0323 -0.20383,0.0625 -0.3693,0.0908 -0.16549,0.0282 -0.36326,0.0444 -0.59331,0.0484 -0.30271,0 -0.56505,-0.0374 -0.78703,-0.11201 -0.22199,-0.0746 -0.40663,-0.18162 -0.55396,-0.32086 -0.14731,-0.13925 -0.2573,-0.30776 -0.32994,-0.50552 -0.0726,-0.19777 -0.10902,-0.41774 -0.10902,-0.65989 l 0,-3.49928 -1.1079,0 0,-0.8052 1.1079,0 0,-1.57408 0.93839,0 0,1.57408 1.71936,0 0,0.8052 -1.71936,0 0,3.35398 c 0,0.13319 0.0192,0.25628 0.0575,0.3693 0.0383,0.113 0.0989,0.21087 0.18162,0.29361 0.0828,0.0828 0.18869,0.14734 0.31785,0.19373 0.12914,0.0465 0.28453,0.0697 0.46616,0.0697 0.12511,0 0.2573,-0.01 0.39654,-0.0302 0.13925,-0.0202 0.2674,-0.0465 0.38444,-0.0787 z" />
        <path
           inkscape:connector-curvature="0"
           id="path5571"
           style="font-size:24px;font-style:normal;font-variant:normal;font-weight:normal;font-stretch:normal;line-height:0%;letter-spacing:0px;word-spacing:0px;fill:#000000;fill-opacity:1;stroke:none;font-family:Corbel;-inkscape-font-specification:Corbel"
           d="m 319.83489,-28.759622 0,-5.75141 0.93839,0 0,5.75141 z m -0.0243,-7.08937 0,-1.04737 0.98683,0 0,1.04737 z" />
        <path
           inkscape:connector-curvature="0"
           id="path5573"
           style="font-size:24px;font-style:normal;font-variant:normal;font-weight:normal;font-stretch:normal;line-height:0%;letter-spacing:0px;word-spacing:0px;fill:#000000;fill-opacity:1;stroke:none;font-family:Corbel;-inkscape-font-specification:Corbel"
           d="m 324.61766,-29.710112 c 0.13721,-0.41976 0.32288,-0.95454 0.55697,-1.60434 l 1.13817,-3.19658 0.98077,0 -2.19158,5.75141 -0.98078,0 -2.19159,-5.75141 0.96866,0 1.13818,3.19658 c 0.22602,0.62962 0.41167,1.16441 0.55698,1.60434 z" />
        <path
           inkscape:connector-curvature="0"
           id="path5575"
           style="font-size:24px;font-style:normal;font-variant:normal;font-weight:normal;font-stretch:normal;line-height:0%;letter-spacing:0px;word-spacing:0px;fill:#000000;fill-opacity:1;stroke:none;font-family:Corbel;-inkscape-font-specification:Corbel"
           d="m 330.64755,-33.857192 c -0.21391,0 -0.41268,0.0423 -0.59632,0.12713 -0.18366,0.0847 -0.34408,0.19979 -0.48131,0.34509 -0.13722,0.1453 -0.24822,0.31583 -0.33298,0.51157 -0.0847,0.19576 -0.13722,0.40463 -0.1574,0.62661 l 2.90597,0 c 0,-0.22602 -0.0292,-0.4369 -0.0878,-0.63267 -0.0585,-0.19573 -0.14429,-0.36626 -0.2573,-0.51155 -0.11301,-0.1453 -0.25226,-0.25933 -0.41773,-0.34207 -0.16549,-0.0828 -0.3572,-0.12411 -0.57515,-0.12411 z m 0.51461,4.43161 c 0.31077,0 0.5943,-0.0253 0.8506,-0.0757 0.25629,-0.0504 0.51157,-0.12207 0.76584,-0.21492 l 0,0.78098 c -0.20584,0.10096 -0.46012,0.18061 -0.76282,0.23914 -0.30271,0.0585 -0.6276,0.0877 -0.97471,0.0877 -0.41168,0 -0.79814,-0.0524 -1.15936,-0.15741 -0.36123,-0.10482 -0.67706,-0.27446 -0.94747,-0.50855 -0.27041,-0.2341 -0.48332,-0.53982 -0.63871,-0.9172 -0.15539,-0.37738 -0.23308,-0.83244 -0.23308,-1.3652 0,-0.52468 0.0726,-0.97975 0.21794,-1.36521 0.1453,-0.38543 0.33904,-0.70732 0.5812,-0.96563 0.24217,-0.25831 0.52065,-0.45203 0.83547,-0.58119 0.31481,-0.12915 0.64375,-0.19373 0.98682,-0.19373 0.32288,0 0.62458,0.0535 0.90509,0.16043 0.2805,0.10692 0.52368,0.27546 0.72952,0.50553 0.20584,0.23005 0.36829,0.52671 0.48736,0.88994 0.11906,0.36326 0.17859,0.79915 0.17859,1.3077 0,0.0484 0,0.0898 0,0.12411 0,0.0343 -0.002,0.112 -0.006,0.23307 l -3.94728,0 c 0,0.3673 0.0555,0.67907 0.16649,0.93536 0.11099,0.25631 0.26234,0.46416 0.45406,0.62358 0.19171,0.15943 0.41672,0.27546 0.67503,0.34812 0.25831,0.0726 0.53679,0.1089 0.83547,0.1089 z" />
        <text
           xml:space="preserve"
           style="font-size:72px;font-style:normal;font-weight:normal;line-height:125%;letter-spacing:0px;word-spacing:0px;fill:#000000;fill-opacity:1;stroke:none;font-family:Sans"
           x="-342.46875"
           y="-45.156242"
           id="text3129"
           sodipodi:linespacing="125%"><tspan
             sodipodi:role="line"
             id="tspan3131"
             x="-342.46875"
             y="-45.156242"
             style="font-size:52px">SinterConfigGUI</tspan></text>
        <g
           transform="matrix(0.45797021,0,0,0.44684695,31.502297,-463.59026)"
           id="g3331">
          <path
             transform="matrix(1.034501,-0.58510098,0.59726938,1.0134246,-40.903644,769.0374)"
             d="M 75,137.5 C 75,144.40356 69.403559,150 62.5,150 55.596441,150 50,144.40356 50,137.5 50,130.59644 55.596441,125 62.5,125 c 6.903559,0 12.5,5.59644 12.5,12.5 z"
             sodipodi:ry="12.5"
             sodipodi:rx="12.5"
             sodipodi:cy="137.5"
             sodipodi:cx="62.5"
             id="path3016"
             style="fill:#3771c8;stroke:none"
             sodipodi:type="arc" />
          <path
             transform="matrix(1.034501,-0.58510098,0.59726938,1.0134246,-25.971902,794.37299)"
             d="M 75,67.5 C 75,74.403559 69.403559,80 62.5,80 55.596441,80 50,74.403559 50,67.5 50,60.596441 55.596441,55 62.5,55 69.403559,55 75,60.596441 75,67.5 z"
             sodipodi:ry="12.5"
             sodipodi:rx="12.5"
             sodipodi:cy="67.5"
             sodipodi:cx="62.5"
             id="path3012"
             style="fill:#3771c8;fill-opacity:1;stroke:none"
             sodipodi:type="arc" />
          <path
             transform="matrix(0.80461171,-0.45507848,0.46454289,0.78821922,-5.4652618,796.66238)"
             d="M 85,102.5 C 85,114.92641 74.926407,125 62.5,125 50.073593,125 40,114.92641 40,102.5 40,90.073593 50.073593,80 62.5,80 74.926407,80 85,90.073593 85,102.5 z"
             sodipodi:ry="22.5"
             sodipodi:rx="22.5"
             sodipodi:cy="102.5"
             sodipodi:cx="62.5"
             id="path3014"
             style="fill:#000000;fill-opacity:0.62264153;stroke:none"
             sodipodi:type="arc" />
          <path
             transform="matrix(0.89289146,0.77734944,-0.79351605,0.87470023,219.24429,713.2316)"
             d="M 75,137.5 C 75,144.40356 69.403559,150 62.5,150 55.596441,150 50,144.40356 50,137.5 50,130.59644 55.596441,125 62.5,125 c 6.903559,0 12.5,5.59644 12.5,12.5 z"
             sodipodi:ry="12.5"
             sodipodi:rx="12.5"
             sodipodi:cy="137.5"
             sodipodi:cx="62.5"
             id="path3016-9"
             style="fill:#3771c8;stroke:none"
             sodipodi:type="arc" />
          <path
             transform="matrix(0.89289146,0.77734944,-0.79351605,0.87470023,199.40642,735.09909)"
             d="M 75,67.5 C 75,74.403559 69.403559,80 62.5,80 55.596441,80 50,74.403559 50,67.5 50,60.596441 55.596441,55 62.5,55 69.403559,55 75,60.596441 75,67.5 z"
             sodipodi:ry="12.5"
             sodipodi:rx="12.5"
             sodipodi:cy="67.5"
             sodipodi:cx="62.5"
             id="path3012-4"
             style="fill:#3771c8;fill-opacity:1;stroke:none"
             sodipodi:type="arc" />
          <path
             transform="matrix(0.69447107,0.60460504,-0.61717921,0.68032245,203.6521,754.88561)"
             d="M 85,102.5 C 85,114.92641 74.926407,125 62.5,125 50.073593,125 40,114.92641 40,102.5 40,90.073593 50.073593,80 62.5,80 74.926407,80 85,90.073593 85,102.5 z"
             sodipodi:ry="22.5"
             sodipodi:rx="22.5"
             sodipodi:cy="102.5"
             sodipodi:cx="62.5"
             id="path3014-8"
             style="fill:#000000;fill-opacity:0.62264153;stroke:none"
             sodipodi:type="arc" />
          <path
             transform="matrix(-0.25453349,-1.1433277,1.1671056,-0.24934779,-64.575305,1034.4906)"
             d="M 75,137.5 C 75,144.40356 69.403559,150 62.5,150 55.596441,150 50,144.40356 50,137.5 50,130.59644 55.596441,125 62.5,125 c 6.903559,0 12.5,5.59644 12.5,12.5 z"
             sodipodi:ry="12.5"
             sodipodi:rx="12.5"
             sodipodi:cy="137.5"
             sodipodi:cx="62.5"
             id="path3016-8"
             style="fill:#3771c8;stroke:none"
             sodipodi:type="arc" />
          <path
             transform="matrix(-0.25453349,-1.1433277,1.1671056,-0.24934779,-35.397675,1028.2569)"
             d="M 75,67.5 C 75,74.403559 69.403559,80 62.5,80 55.596441,80 50,74.403559 50,67.5 50,60.596441 55.596441,55 62.5,55 69.403559,55 75,60.596441 75,67.5 z"
             sodipodi:ry="12.5"
             sodipodi:rx="12.5"
             sodipodi:cy="67.5"
             sodipodi:cx="62.5"
             id="path3012-2"
             style="fill:#3771c8;fill-opacity:1;stroke:none"
             sodipodi:type="arc" />
          <path
             transform="matrix(-0.19797048,-0.88925478,0.90774889,-0.1939372,-26.937626,1009.8147)"
             d="M 85,102.5 C 85,114.92641 74.926407,125 62.5,125 50.073593,125 40,114.92641 40,102.5 40,90.073593 50.073593,80 62.5,80 74.926407,80 85,90.073593 85,102.5 z"
             sodipodi:ry="22.5"
             sodipodi:rx="22.5"
             sodipodi:cy="102.5"
             sodipodi:cx="62.5"
             id="path3014-4"
             style="fill:#000000;fill-opacity:0.62264153;stroke:none"
             sodipodi:type="arc" />
          <path
             transform="matrix(-0.4908313,1.0668522,-1.0890397,-0.48083141,358.04884,936.29138)"
             d="M 75,137.5 C 75,144.40356 69.403559,150 62.5,150 55.596441,150 50,144.40356 50,137.5 50,130.59644 55.596441,125 62.5,125 c 6.903559,0 12.5,5.59644 12.5,12.5 z"
             sodipodi:ry="12.5"
             sodipodi:rx="12.5"
             sodipodi:cy="137.5"
             sodipodi:cx="62.5"
             id="path3016-5"
             style="fill:#3771c8;stroke:none"
             sodipodi:type="arc" />
          <path
             transform="matrix(-0.4908313,1.0668522,-1.0890397,-0.48083141,330.82287,924.27059)"
             d="M 75,67.5 C 75,74.403559 69.403559,80 62.5,80 55.596441,80 50,74.403559 50,67.5 50,60.596441 55.596441,55 62.5,55 69.403559,55 75,60.596441 75,67.5 z"
             sodipodi:ry="12.5"
             sodipodi:rx="12.5"
             sodipodi:cy="67.5"
             sodipodi:cx="62.5"
             id="path3012-5"
             style="fill:#3771c8;fill-opacity:1;stroke:none"
             sodipodi:type="arc" />
          <path
             transform="matrix(-0.38175765,0.82977387,-0.84703095,-0.37397999,312.81285,934.14615)"
             d="M 85,102.5 C 85,114.92641 74.926407,125 62.5,125 50.073593,125 40,114.92641 40,102.5 40,90.073593 50.073593,80 62.5,80 74.926407,80 85,90.073593 85,102.5 z"
             sodipodi:ry="22.5"
             sodipodi:rx="22.5"
             sodipodi:cy="102.5"
             sodipodi:cx="62.5"
             id="path3014-1"
             style="fill:#000000;fill-opacity:0.62264153;stroke:none"
             sodipodi:type="arc" />
          <path
             transform="matrix(-1.1889529,-0.11303493,0.11538573,-1.1647299,184.80343,1138.6907)"
             d="M 75,137.5 C 75,144.40356 69.403559,150 62.5,150 55.596441,150 50,144.40356 50,137.5 50,130.59644 55.596441,125 62.5,125 c 6.903559,0 12.5,5.59644 12.5,12.5 z"
             sodipodi:ry="12.5"
             sodipodi:rx="12.5"
             sodipodi:cy="137.5"
             sodipodi:cx="62.5"
             id="path3016-7"
             style="fill:#3771c8;stroke:none"
             sodipodi:type="arc" />
          <path
             transform="matrix(-1.1889529,-0.11303493,0.11538573,-1.1647299,187.68807,1109.5725)"
             d="M 75,67.5 C 75,74.403559 69.403559,80 62.5,80 55.596441,80 50,74.403559 50,67.5 50,60.596441 55.596441,55 62.5,55 69.403559,55 75,60.596441 75,67.5 z"
             sodipodi:ry="12.5"
             sodipodi:rx="12.5"
             sodipodi:cy="67.5"
             sodipodi:cx="62.5"
             id="path3012-1"
             style="fill:#3771c8;fill-opacity:1;stroke:none"
             sodipodi:type="arc" />
          <path
             transform="matrix(-0.92474101,-0.08791604,0.08974444,-0.9059011,172.36072,1096.0317)"
             d="M 85,102.5 C 85,114.92641 74.926407,125 62.5,125 50.073593,125 40,114.92641 40,102.5 40,90.073593 50.073593,80 62.5,80 74.926407,80 85,90.073593 85,102.5 z"
             sodipodi:ry="22.5"
             sodipodi:rx="22.5"
             sodipodi:cy="102.5"
             sodipodi:cx="62.5"
             id="path3014-15"
             style="fill:#000000;fill-opacity:0.62264153;stroke:none"
             sodipodi:type="arc" />
          <flowRoot
             transform="translate(29.4375,841.81371)"
             style="font-size:144px;font-style:normal;font-variant:normal;font-weight:normal;font-stretch:normal;line-height:125%;letter-spacing:0px;word-spacing:0px;fill:#000000;fill-opacity:1;stroke:none;font-family:Sin City;-inkscape-font-specification:Sin City"
             id="flowRoot3021"
             xml:space="preserve"><flowRegion
               id="flowRegion3023"><rect
                 style="font-size:144px;font-style:normal;font-variant:normal;font-weight:normal;font-stretch:normal;font-family:Sin City;-inkscape-font-specification:Sin City"
                 y="6.6710062"
                 x="5.559175"
                 height="244.04778"
                 width="244.6037"
                 id="rect3025" /></flowRegion><flowPara
               style="fill:#ff0000"
               id="flowPara3027">S</flowPara></flowRoot>        </g>
        <text
           xml:space="preserve"
           style="font-size:40px;font-style:normal;font-weight:normal;line-height:125%;letter-spacing:0px;word-spacing:0px;fill:#000000;fill-opacity:1;stroke:none;font-family:Sans"
           x="-337.46875"
           y="-95.156242"
           id="text3697"
           sodipodi:linespacing="125%"><tspan
             sodipodi:role="line"
             id="tspan3699"
             x="-337.46875"
             y="-95.156242"
             style="font-size:20px">SimSinter Configuration File Builder</tspan></text>
      </g>
    </g>
  </g>
</svg>
